<svg width="41" height="41" viewBox="0 0 41 41" fill="none" xmlns="http://www.w3.org/2000/svg">
<path d="M26.4792 12.8125C26.4792 16.1147 23.8022 18.7917 20.5 18.7917C17.1978 18.7917 14.5208 16.1147 14.5208 12.8125C14.5208 9.51034 17.1978 6.83337 20.5 6.83337C23.8022 6.83337 26.4792 9.51034 26.4792 12.8125Z" fill="#D1FC56"/>
<path d="M30.75 28.1875C30.75 31.4897 26.1609 34.1667 20.5 34.1667C14.8391 34.1667 10.25 31.4897 10.25 28.1875C10.25 24.8853 14.8391 22.2084 20.5 22.2084C26.1609 22.2084 30.75 24.8853 30.75 28.1875Z" fill="#D1FC56"/>
<path d="M12.1668 8.54163C12.47 8.54163 12.766 8.57137 13.0517 8.628C12.3555 9.86466 11.9583 11.2922 11.9583 12.8125C11.9583 14.2957 12.3364 15.6907 13.0014 16.9062C12.7313 16.9566 12.4522 16.983 12.1668 16.983C9.75053 16.983 7.79174 15.0933 7.79174 12.7623C7.79174 10.4313 9.75053 8.54163 12.1668 8.54163Z" fill="#D1FC56"/>
<path d="M9.30586 32.4343C8.33567 31.2746 7.68749 29.8514 7.68749 28.1875C7.68749 26.5744 8.29664 25.1876 9.21778 24.0477C5.96395 24.3001 3.41666 26.0797 3.41666 28.2377C3.41666 30.4158 6.00872 32.2086 9.30586 32.4343Z" fill="#D1FC56"/>
<path d="M29.0415 12.8125C29.0415 14.2957 28.6634 15.6907 27.9984 16.9062C28.2686 16.9566 28.5476 16.983 28.833 16.983C31.2493 16.983 33.2081 15.0933 33.2081 12.7623C33.2081 10.4313 31.2493 8.54163 28.833 8.54163C28.5298 8.54163 28.2339 8.57137 27.9481 8.628C28.6443 9.86466 29.0415 11.2922 29.0415 12.8125Z" fill="#D1FC56"/>
<path d="M31.694 32.4343C34.9911 32.2086 37.5832 30.4158 37.5832 28.2377C37.5832 26.0797 35.0359 24.3001 31.7821 24.0477C32.7032 25.1876 33.3123 26.5744 33.3123 28.1875C33.3123 29.8514 32.6642 31.2746 31.694 32.4343Z" fill="#D1FC56"/>
</svg>
