<svg width="41" height="41" viewBox="0 0 41 41" fill="none" xmlns="http://www.w3.org/2000/svg">
<path d="M15.6367 9.23927C17.8005 5.35751 18.8825 3.41663 20.5 3.41663C22.1176 3.41663 23.1995 5.35751 25.3634 9.23926L25.9232 10.2435C26.5381 11.3466 26.8455 11.8981 27.3249 12.262C27.8043 12.626 28.4013 12.761 29.5954 13.0312L30.6825 13.2772C34.8844 14.2279 36.9854 14.7033 37.4853 16.3107C37.9851 17.9181 36.5528 19.593 33.6882 22.9427L32.9471 23.8094C32.133 24.7613 31.726 25.2372 31.5429 25.8261C31.3598 26.4149 31.4214 27.0499 31.5444 28.3199L31.6565 29.4762C32.0896 33.9456 32.3061 36.1802 30.9975 37.1737C29.6888 38.1671 27.7217 37.2614 23.7874 35.4499L22.7696 34.9812C21.6516 34.4665 21.0926 34.2091 20.5 34.2091C19.9075 34.2091 19.3485 34.4665 18.2305 34.9812L17.2126 35.4499C13.2783 37.2613 11.3112 38.1671 10.0026 37.1737C8.69394 36.1802 8.91048 33.9456 9.34357 29.4762L9.45562 28.32C9.57869 27.0499 9.64022 26.4149 9.45712 25.8261C9.27401 25.2372 8.867 24.7613 8.05296 23.8094L7.31185 22.9427C4.44724 19.593 3.01493 17.9181 3.51478 16.3107C4.01463 14.7033 6.11561 14.2279 10.3176 13.2772L11.4047 13.0312C12.5987 12.761 13.1958 12.626 13.6751 12.262C14.1545 11.8981 14.462 11.3466 15.0769 10.2435L15.6367 9.23927Z" fill="#D1FC56"/>
</svg>
