<svg width="41" height="41" viewBox="0 0 41 41" fill="none" xmlns="http://www.w3.org/2000/svg">
<path fill-rule="evenodd" clip-rule="evenodd" d="M26.766 11.9584C26.766 11.2508 27.3396 10.6771 28.0472 10.6771H37.5834C38.291 10.6771 38.8647 11.2508 38.8647 11.9584V21.4325C38.8647 22.1401 38.291 22.7138 37.5834 22.7138C36.8758 22.7138 36.3022 22.1401 36.3022 21.4325V15.0383L25.8201 25.4564C25.019 26.2528 24.3285 26.9391 23.7014 27.4149C23.0291 27.9248 22.2822 28.3106 21.3628 28.3105C20.4434 28.3104 19.6966 27.9245 19.0245 27.4143C18.3975 26.9385 17.7072 26.2519 16.9062 25.4554L16.4377 24.9896C15.5594 24.1162 14.9899 23.5537 14.5157 23.1939C14.0711 22.8565 13.8633 22.8188 13.7257 22.8189C13.588 22.8189 13.3802 22.8567 12.9359 23.1944C12.462 23.5546 11.8929 24.1175 11.0152 24.9915L4.32083 31.6579C3.81942 32.1572 3.00818 32.1555 2.50887 31.6541C2.00956 31.1527 2.01126 30.3415 2.51267 29.8422L9.26665 23.1164C10.0677 22.3186 10.7582 21.631 11.3853 21.1543C12.0575 20.6434 12.8046 20.2567 13.7247 20.2564C14.6448 20.256 15.3922 20.6422 16.0648 21.1526C16.6923 21.6288 17.3832 22.3159 18.1849 23.1132L18.6534 23.5791C19.531 24.4517 20.1 25.0136 20.5737 25.3732C21.0178 25.7103 21.2255 25.748 21.3631 25.748C21.5007 25.748 21.7084 25.7104 22.1526 25.3734C22.6264 25.0139 23.1955 24.4521 24.0733 23.5797L34.4768 13.2396H28.0472C27.3396 13.2396 26.766 12.666 26.766 11.9584Z" fill="#D1FC56"/>
</svg>
