<svg width="41" height="41" viewBox="0 0 41 41" fill="none" xmlns="http://www.w3.org/2000/svg">
<path d="M29.542 3.91699C29.0417 4.41734 29.0417 5.22266 29.0417 6.83329V29.0416C29.0417 30.6523 29.0417 31.4576 29.542 31.9579C30.0424 32.4583 30.8477 32.4583 32.4583 32.4583C34.069 32.4583 34.8743 32.4583 35.3746 31.9579C35.875 31.4576 35.875 30.6523 35.875 29.0416V6.83329C35.875 5.22266 35.875 4.41734 35.3746 3.91699C34.8743 3.41663 34.069 3.41663 32.4583 3.41663C30.8477 3.41663 30.0424 3.41663 29.542 3.91699Z" fill="#D1FC56"/>
<path d="M17.0833 11.9583C17.0833 10.3477 17.0833 9.54234 17.5837 9.04199C18.0841 8.54163 18.8894 8.54163 20.5 8.54163C22.1106 8.54163 22.9159 8.54163 23.4163 9.04199C23.9167 9.54234 23.9167 10.3477 23.9167 11.9583V29.0416C23.9167 30.6523 23.9167 31.4576 23.4163 31.9579C22.9159 32.4583 22.1106 32.4583 20.5 32.4583C18.8894 32.4583 18.0841 32.4583 17.5837 31.9579C17.0833 31.4576 17.0833 30.6523 17.0833 29.0416V11.9583Z" fill="#D1FC56"/>
<path d="M5.62536 15.8753C5.125 16.3757 5.125 17.181 5.125 18.7916V29.0416C5.125 30.6523 5.125 31.4576 5.62536 31.9579C6.12572 32.4583 6.93103 32.4583 8.54167 32.4583C10.1523 32.4583 10.9576 32.4583 11.458 31.9579C11.9583 31.4576 11.9583 30.6523 11.9583 29.0416V18.7916C11.9583 17.181 11.9583 16.3757 11.458 15.8753C10.9576 15.375 10.1523 15.375 8.54167 15.375C6.93103 15.375 6.12572 15.375 5.62536 15.8753Z" fill="#D1FC56"/>
<path d="M5.125 36.302C4.41739 36.302 3.84375 36.8757 3.84375 37.5833C3.84375 38.2909 4.41739 38.8645 5.125 38.8645H35.875C36.5826 38.8645 37.1562 38.2909 37.1562 37.5833C37.1562 36.8757 36.5826 36.302 35.875 36.302H5.125Z" fill="#D1FC56"/>
</svg>
