<svg width="41" height="41" viewBox="0 0 41 41" fill="none" xmlns="http://www.w3.org/2000/svg">
<path d="M27.3334 13.6667L32.4584 13.6675C35.2888 13.6679 37.5837 11.3737 37.5842 8.54329C37.5846 5.71283 35.2904 3.41793 32.46 3.41748C29.6295 3.41703 27.3346 5.71121 27.3342 8.54167L27.3334 13.6667L13.6675 13.6666L13.6667 8.54167C13.6662 5.71121 11.3713 3.41703 8.54088 3.41748C5.71042 3.41793 3.41624 5.71283 3.41669 8.54329C3.41713 11.3737 5.71204 13.6679 8.54249 13.6675L13.6675 13.6666L13.6667 27.3333H27.3334V13.6667Z" fill="#D1FC56"/>
<path d="M27.3334 27.3333L32.4584 27.3341C35.2888 27.3337 37.5837 29.6279 37.5842 32.4583C37.5846 35.2888 35.2904 37.5837 32.46 37.5841C29.6295 37.5846 27.3346 35.2904 27.3342 32.46L27.3334 27.3333Z" fill="#D1FC56"/>
<path d="M8.54249 27.3341L13.6675 27.335L13.6667 32.46C13.6662 35.2904 11.3713 37.5846 8.54088 37.5841C5.71042 37.5837 3.41624 35.2888 3.41669 32.4583C3.41713 29.6279 5.71204 27.3337 8.54249 27.3341Z" fill="#D1FC56"/>
</svg>
