<svg width="41" height="41" viewBox="0 0 41 41" fill="none" xmlns="http://www.w3.org/2000/svg">
<path d="M31.3596 2.7575C31.7237 2.15073 32.5107 1.95397 33.1175 2.31803L32.4583 3.4167C33.1175 2.31803 33.1169 2.31769 33.1175 2.31803L33.1199 2.31946L33.1225 2.32108L33.1289 2.32493L33.1453 2.33505C33.1578 2.34286 33.1736 2.35284 33.1924 2.365C33.23 2.38931 33.2797 2.4224 33.3399 2.46448C33.46 2.54857 33.6222 2.66901 33.8124 2.82747C34.1918 3.14366 34.688 3.61601 35.1822 4.25842C36.1779 5.55289 37.1562 7.52925 37.1562 10.25C37.1562 12.9708 36.1779 14.9472 35.1822 16.2416C34.688 16.8841 34.1918 17.3564 33.8124 17.6726C33.6222 17.8311 33.46 17.9515 33.3399 18.0356C33.2797 18.0777 33.23 18.1108 33.1924 18.1351C33.183 18.1411 33.1744 18.1467 33.1665 18.1516C33.1587 18.1566 33.1516 18.1611 33.1453 18.165L33.1289 18.1751L33.1225 18.179L33.1199 18.1806C33.1193 18.181 33.1175 18.182 32.4583 17.0834L33.1175 18.182C32.5107 18.5461 31.7237 18.3493 31.3596 17.7426C30.9971 17.1383 31.1907 16.3554 31.7914 15.9893L31.8009 15.9833C31.8134 15.9752 31.837 15.9596 31.8704 15.9363C31.9371 15.8896 32.0417 15.8125 32.1719 15.704C32.4331 15.4864 32.7911 15.1473 33.1511 14.6793C33.8637 13.7529 34.5937 12.3126 34.5937 10.25C34.5937 8.18748 33.8637 6.74717 33.1511 5.82081C32.7911 5.35281 32.4331 5.0137 32.1719 4.79603C32.0417 4.68756 31.9371 4.61048 31.8704 4.56377C31.837 4.54045 31.8134 4.52483 31.8009 4.51678L31.7915 4.51075C31.1907 4.14468 30.9971 3.36172 31.3596 2.7575Z" fill="#D1FC56"/>
<path d="M17.0833 17.0834C20.8572 17.0834 23.9166 14.024 23.9166 10.25C23.9166 6.47609 20.8572 3.4167 17.0833 3.4167C13.3093 3.4167 10.25 6.47609 10.25 10.25C10.25 14.024 13.3093 17.0834 17.0833 17.0834Z" fill="#D1FC56"/>
<path d="M3.41663 29.8959C3.41663 34.1416 3.41663 37.5834 17.0833 37.5834C30.75 37.5834 30.75 34.1416 30.75 29.8959C30.75 25.6502 24.6312 22.2084 17.0833 22.2084C9.5354 22.2084 3.41663 25.6502 3.41663 29.8959Z" fill="#D1FC56"/>
<path d="M29.7008 5.7347C29.094 5.37064 28.307 5.56739 27.943 6.17417L28.367 7.92264L28.3803 7.93172C28.4003 7.94573 28.4382 7.97343 28.4883 8.01517C28.5894 8.09937 28.7338 8.23562 28.8802 8.42601C29.1658 8.79717 29.4687 9.38331 29.4687 10.25C29.4687 11.1167 29.1658 11.7029 28.8802 12.074C28.7338 12.2644 28.5894 12.4007 28.4883 12.4849C28.4382 12.5266 28.4003 12.5543 28.3803 12.5683L28.367 12.5774C27.7723 12.9455 27.582 13.7243 27.943 14.3259C28.307 14.9327 29.094 15.1294 29.7008 14.7654L29.0416 13.6667C29.7008 14.7654 29.7003 14.7657 29.7008 14.7654L29.7031 14.764L29.7056 14.7625L29.711 14.7592L29.7237 14.7514L29.7566 14.7305C29.7816 14.7143 29.813 14.6934 29.8498 14.6676C29.9232 14.6162 30.0187 14.5452 30.1288 14.4535C30.3481 14.2707 30.6307 14.0012 30.9113 13.6364C31.48 12.8972 32.0312 11.775 32.0312 10.25C32.0312 8.72508 31.48 7.60289 30.9113 6.86363C30.6307 6.49882 30.3481 6.22933 30.1288 6.04661C30.0187 5.95488 29.9232 5.88382 29.8498 5.83244C29.813 5.80671 29.7816 5.78579 29.7566 5.76957L29.7237 5.7487L29.711 5.74085L29.7056 5.73756L29.7031 5.73608C29.7025 5.73574 29.7008 5.7347 29.0416 6.83336L29.7008 5.7347Z" fill="#D1FC56"/>
</svg>
