<svg width="218" height="23" viewBox="0 0 218 23" fill="none" xmlns="http://www.w3.org/2000/svg">
<path d="M10.6857 22.1803C16.5872 22.1803 21.3713 17.3962 21.3713 11.4947C21.3713 5.59312 16.5872 0.808987 10.6857 0.808987C4.78414 0.808987 0 5.59312 0 11.4947C0 17.3962 4.78414 22.1803 10.6857 22.1803Z" fill="#D1FC56"/>
<path d="M30.9884 22.1803C36.89 22.1803 41.6741 17.3962 41.6741 11.4947C41.6741 5.59312 36.89 0.808987 30.9884 0.808987C25.0869 0.808987 20.3028 5.59312 20.3028 11.4947C20.3028 17.3962 25.0869 22.1803 30.9884 22.1803Z" fill="#D1FC56"/>
<path d="M69.6064 1.82413V11.3344C69.6064 12.3317 69.3714 13.3077 68.9012 14.2622C68.431 15.2168 67.626 16.0218 66.4862 16.6772C65.3464 17.3183 63.8362 17.6389 61.9555 17.6389C60.1746 17.6389 58.6999 17.2614 57.5316 16.5062C56.3633 15.7511 55.5085 14.8678 54.9671 13.8562C54.4257 12.8304 54.155 11.9114 54.155 11.0993H57.6599C57.6599 11.7404 57.838 12.3459 58.1942 12.9159C58.5503 13.4715 59.0561 13.9274 59.7115 14.2836C60.3812 14.6256 61.1505 14.7965 62.0196 14.7965C62.8745 14.7965 63.6082 14.6327 64.2209 14.305C64.8335 13.963 65.2894 13.5285 65.5886 13.0013C65.9021 12.4599 66.0588 11.9043 66.0588 11.3344V1.82413H69.6064Z" fill="white"/>
<path d="M81.9067 5.99154H85.3261V17.6389H81.9067V16.1002C80.7811 17.3825 79.0643 18.0236 76.7562 18.0236C75.1319 18.0236 73.8639 17.4751 72.9521 16.378C72.0402 15.2667 71.5843 13.4074 71.5843 10.8001V5.99154H75.0037V10.736C75.0037 11.6478 75.0749 12.4457 75.2174 13.1296C75.3599 13.8134 75.6733 14.3976 76.1578 14.882C76.6564 15.3522 77.3973 15.5873 78.3804 15.5873C79.8051 15.5873 80.7455 15.1242 81.2014 14.1981C81.6716 13.2578 81.9067 12.0681 81.9067 10.6291V5.99154Z" fill="white"/>
<path d="M95.4497 10.8428C96.5041 10.8428 97.423 10.9141 98.2066 11.0565C99.0045 11.199 99.667 11.5125 100.194 11.9969C100.721 12.4671 100.985 13.1652 100.985 14.0913C100.985 15.7725 100.28 16.8695 98.8691 17.3825C97.4586 17.8811 95.7988 18.1305 93.8896 18.1305C92.0374 18.1305 90.342 17.8384 88.8032 17.2542C87.2645 16.6558 86.4951 15.516 86.4951 13.8348L89.9359 13.8562C89.9359 14.5971 90.3349 15.1313 91.1327 15.459C91.9306 15.7725 92.8496 15.9292 93.8896 15.9292C95.2574 15.9292 96.2262 15.7939 96.7961 15.5232C97.366 15.2524 97.651 14.825 97.651 14.2409C97.651 13.6425 97.3233 13.2649 96.6679 13.1082C96.0268 12.9515 95.2075 12.8731 94.2102 12.8731H93.6759C91.6813 12.8589 89.9858 12.6095 88.5895 12.1251C87.1933 11.6407 86.4951 10.679 86.4951 9.23998C86.4951 7.70124 87.2289 6.69679 88.6964 6.22662C90.1781 5.75645 91.8878 5.52137 93.8255 5.52137C95.6634 5.52137 97.3162 5.81344 98.7837 6.39759C100.251 6.98174 100.985 8.11442 100.985 9.79564L97.5655 9.75289C97.5655 8.92653 97.1238 8.378 96.2405 8.1073C95.3571 7.82235 94.545 7.67987 93.8041 7.67987C92.7641 7.67987 91.8593 7.7796 91.09 7.97907C90.3206 8.16429 89.9359 8.57034 89.9359 9.19724C89.9359 10.3085 91.204 10.8642 93.74 10.8642L95.4497 10.8428Z" fill="white"/>
<path d="M107.948 5.99154H110.17V8.59884H107.948V17.6389H104.528V8.59884H102.199V5.99154H104.528V3.46972L107.948 1.48218V5.99154Z" fill="white"/>
<path d="M139.135 17.6389H135.373L133.557 14.2836H123.576L121.76 17.6389H117.998L126.568 1.82413H130.565L139.135 17.6389ZM128.577 5.07257L125.158 11.3557H131.975L128.577 5.07257Z" fill="white"/>
<path d="M153.317 5.99154V17.6389C153.274 18.7645 152.896 19.6692 152.184 20.3531C151.486 21.037 150.638 21.5143 149.641 21.785C148.658 22.0557 147.653 22.191 146.627 22.191C145.089 22.191 143.842 22.134 142.887 22.02C141.933 21.9203 141.078 21.5997 140.323 21.0583C139.582 20.5169 139.212 19.6549 139.212 18.4724H142.716C142.731 19.427 143.728 19.9043 145.708 19.9043L146.627 19.8829C147.383 19.8829 148.109 19.7191 148.807 19.3914C149.52 19.0637 149.876 18.4083 149.876 17.4252V16.3353C148.651 17.4608 146.805 18.0236 144.341 18.0236C143.244 18.0236 142.261 17.7458 141.391 17.1901C140.537 16.6202 139.86 15.8793 139.361 14.9675C138.877 14.0557 138.62 13.0939 138.592 12.0824V11.9328C138.606 10.7645 138.855 9.71015 139.34 8.76981C139.824 7.82947 140.501 7.0886 141.37 6.54719C142.239 6.00578 143.229 5.73508 144.341 5.73508C146.862 5.66384 148.715 6.191 149.897 7.31656L150.282 5.99154H153.317ZM146.114 15.801C147.254 15.801 148.166 15.459 148.85 14.7752C149.534 14.077 149.876 13.0583 149.876 11.7191V11.6549C149.876 11.028 149.726 10.4297 149.427 9.85975C149.128 9.28985 148.708 8.8268 148.166 8.47061C147.625 8.11442 147.005 7.93633 146.307 7.93633C145.452 7.93633 144.718 8.11442 144.106 8.47061C143.493 8.8268 143.023 9.31122 142.695 9.92386C142.382 10.5223 142.218 11.1848 142.204 11.9114C142.232 13.0512 142.588 13.9844 143.272 14.711C143.956 15.4377 144.903 15.801 146.114 15.801Z" fill="white"/>
<path d="M170.048 12.0824H158.187C158.23 12.7663 158.422 13.4003 158.764 13.9844C159.106 14.5543 159.597 15.0174 160.238 15.3736C160.88 15.7297 161.656 15.9078 162.568 15.9078C163.323 15.9078 164.014 15.7725 164.641 15.5018C165.268 15.2311 165.759 14.882 166.116 14.4546C166.472 14.0129 166.65 13.5499 166.65 13.0654H170.048C170.048 13.9346 169.749 14.7538 169.15 15.5232C168.566 16.2783 167.704 16.8909 166.564 17.3611C165.425 17.8313 164.078 18.0663 162.525 18.0663C161.115 18.0663 159.811 17.8028 158.614 17.2756C157.432 16.7484 156.484 16.0076 155.772 15.053C155.074 14.0842 154.725 12.98 154.725 11.7404C154.725 10.4866 155.067 9.38246 155.75 8.42787C156.434 7.45903 157.368 6.71816 158.55 6.20525C159.747 5.67809 161.072 5.41451 162.525 5.41451C164.021 5.41451 165.332 5.67097 166.457 6.18388C167.583 6.69679 168.459 7.42342 169.086 8.36375C169.713 9.28985 170.034 10.3798 170.048 11.6336V11.7404V12.0824ZM162.568 7.57302C161.442 7.57302 160.545 7.82235 159.875 8.32101C159.205 8.80543 158.728 9.46082 158.443 10.2872H166.479C166.279 9.46082 165.866 8.80543 165.239 8.32101C164.612 7.82235 163.722 7.57302 162.568 7.57302Z" fill="white"/>
<path d="M179.978 5.60685C181.602 5.60685 182.87 6.16251 183.782 7.27382C184.693 8.37088 185.149 10.2231 185.149 12.8304V17.6389H181.73V12.8945C181.73 11.9826 181.659 11.1848 181.516 10.5009C181.374 9.81701 181.053 9.23998 180.555 8.76981C180.07 8.28539 179.336 8.04318 178.353 8.04318C177.342 8.04318 176.572 8.28539 176.045 8.76981C175.532 9.23998 175.197 9.82413 175.041 10.5223C174.898 11.2204 174.827 12.0396 174.827 12.98V17.6389H171.408V5.99154H174.827V7.53027C175.953 6.24799 177.669 5.60685 179.978 5.60685Z" fill="white"/>
<path d="M186.385 11.8473C186.385 10.6505 186.727 9.5748 187.411 8.62021C188.095 7.65138 189.028 6.89626 190.211 6.35485C191.393 5.81344 192.704 5.54274 194.143 5.54274C196.223 5.54274 197.862 5.99154 199.058 6.88913C200.269 7.77248 201.11 8.98352 201.58 10.5223H198.139C197.954 9.78139 197.498 9.15449 196.772 8.64158C196.059 8.11442 195.204 7.85084 194.207 7.85084C192.853 7.86509 191.792 8.24265 191.023 8.98352C190.253 9.7244 189.869 10.679 189.869 11.8473C189.869 12.5169 190.025 13.1652 190.339 13.7921C190.666 14.4047 191.158 14.9034 191.813 15.2881C192.469 15.6728 193.267 15.858 194.207 15.8437C195.219 15.8437 196.081 15.5873 196.793 15.0744C197.505 14.5472 197.947 13.9203 198.118 13.1937H201.559C201.431 14.0485 201.017 14.8606 200.319 15.63C199.621 16.3851 198.723 16.9978 197.626 17.4679C196.544 17.9239 195.382 18.1518 194.143 18.1518C192.747 18.1518 191.457 17.8811 190.275 17.3397C189.092 16.7841 188.145 16.0289 187.432 15.0744C186.734 14.1055 186.385 13.0298 186.385 11.8473Z" fill="white"/>
<path d="M218 5.99154L211.054 20.2676C210.67 21.0085 209.964 21.4929 208.939 21.7208C207.927 21.9488 206.737 22.0628 205.37 22.0628V19.0067C206.082 19.0067 206.573 18.9426 206.844 18.8143C207.129 18.7004 207.272 18.5365 207.272 18.3228C207.272 18.2088 207.236 18.0663 207.165 17.8954C207.093 17.7386 207.044 17.6318 207.015 17.5748L201.01 5.99154H204.771L209.665 16.3139L214.239 5.99154H218Z" fill="white"/>
</svg>
