<svg width="199" height="54" viewBox="0 0 199 54" fill="none" xmlns="http://www.w3.org/2000/svg">
<path d="M52.4656 1.95008C50.1862 1.94228 48.9495 1.988 49.3589 2.07283C51.2349 2.46151 51.187 2.14443 51.1087 12.4929C51.0339 22.3724 51.0405 22.3055 49.7743 22.4943C49.4249 22.5462 49.8307 22.6174 50.6787 22.6531C51.527 22.6888 53.4487 22.7957 54.9492 22.8841C59.3477 23.1433 59.9689 23.1319 61.659 22.783C67.6694 21.5425 71.4207 15.7203 70.104 9.67668C69.5405 7.09101 67.466 4.3434 65.2624 3.27154C63.0841 2.21183 62.0689 2.08254 55.0678 1.97895C54.0975 1.96461 53.2253 1.95266 52.4656 1.95008ZM56.2688 2.58554C59.4246 2.508 63.026 3.74876 64.9806 5.68341C68.0123 8.68382 68.8377 13.7518 66.9306 17.6778C66.1554 19.2737 64.376 20.8564 62.5934 21.5337C60.0839 22.4874 54.9982 22.3392 53.9111 21.281C53.7228 21.0975 53.6443 18.365 53.6443 11.9658V2.91049L54.9492 2.70106C55.3758 2.63439 55.8182 2.5966 56.2688 2.58554Z" fill="#424236"/>
<path d="M130.238 22.8521C128.81 22.3568 128.758 22.2593 128.758 20.0433C128.758 18.9169 128.854 17.9275 128.971 17.8446C129.099 17.7543 129.185 18.0657 129.185 18.6221C129.187 20.7025 130.735 22.1086 133.023 22.1086C134.531 22.1086 135.338 21.706 136.09 20.5778C136.758 19.5763 136.971 18.1363 136.651 16.7784C136.386 15.6538 135.646 14.7184 132.343 11.333C130.158 9.09349 129.398 7.615 129.398 5.60639C129.398 2.34001 131.212 0.342494 134.193 0.32583C136.543 0.31269 138.193 0.632556 138.045 1.07245C137.978 1.27352 137.913 2.16914 137.901 3.06275C137.881 4.61155 137.871 4.64249 137.683 3.72506C137.328 1.99204 136.225 1.15452 134.3 1.15452C132.12 1.15452 130.892 2.39144 130.89 4.58988C130.889 6.07251 131.597 7.25071 133.66 9.19995C137.119 12.468 137.971 13.6504 138.36 15.7238C138.89 18.5502 137.779 21.1433 135.513 22.3688C134.379 22.9824 133.953 23.0799 132.488 23.062C131.55 23.0506 130.538 22.9561 130.238 22.8521Z" fill="#424236"/>
<path d="M146.133 22.7513C144.927 22.3102 144.841 22.0368 145.094 19.4664C145.193 18.4597 145.287 17.9583 145.303 18.3522C145.358 19.722 146.132 21.1021 147.165 21.6751C148.505 22.4178 150.714 22.2894 151.664 21.4134C152.537 20.608 153.005 19.4492 153.005 18.0918C153.005 16.4407 152.493 15.4776 150.58 13.532C146.66 9.54408 145.929 8.44781 145.67 6.16579C145.506 4.72537 145.752 3.62465 146.523 2.35184C147.615 0.547023 149.623 -0.0161284 153.058 0.518925L154.284 0.709815L154.269 2.58365C154.258 4.10047 154.214 4.3412 154.038 3.84735C153.24 1.59892 152.529 1.09846 150.297 1.2138C148.938 1.28406 148.688 1.37501 148.109 2.0095C146.853 3.38755 146.821 5.62048 148.033 7.27042C148.341 7.68881 149.525 8.89605 150.665 9.95318C153.774 12.8362 154.71 14.4585 154.71 16.9673C154.71 19.3202 153.802 21.1076 151.987 22.3251C151.143 22.8916 150.723 22.9965 149.072 23.0537C147.789 23.0982 146.805 22.997 146.133 22.7513Z" fill="#424236"/>
<path d="M38.176 18.5771C35.9203 16.1053 32.3295 12.0171 30.1973 9.49232C28.0647 6.96755 26.2346 4.89315 26.1302 4.88256C25.8926 4.85849 26.1717 18.4794 26.4494 20.456C26.562 21.2567 26.7589 22.0235 26.8872 22.1598C27.0153 22.296 27.5647 22.4844 28.1077 22.5785C28.7172 22.6837 27.8556 22.7485 25.8575 22.7476C24.0766 22.7466 22.9839 22.6775 23.4291 22.5939C24.752 22.3456 24.789 22.0199 24.8037 10.4642C24.8139 2.3627 24.8775 0.23293 25.1057 0.32848C25.2649 0.395007 29.0291 4.6505 33.4709 9.78515C37.9129 14.9198 41.5818 19.0844 41.6237 19.0397C41.6655 18.9952 41.6139 15.1189 41.5083 10.4258C41.2949 0.899997 41.3795 1.32175 39.6054 0.951987C38.8193 0.788074 39.3388 0.737254 41.8154 0.735906C43.8954 0.734672 44.7768 0.803601 44.2801 0.928436C43.8547 1.03529 43.3866 1.25067 43.2391 1.40707C43.0468 1.6115 42.9535 4.6938 42.9068 12.3739C42.8568 20.5708 42.7764 23.0583 42.5597 23.0639C42.4048 23.068 40.432 21.0488 38.176 18.5771Z" fill="#424236"/>
<path d="M97.6339 22.8636C96.0091 22.7873 94.9939 22.704 95.3774 22.6786C96.7053 22.5909 96.7347 22.3671 96.7347 12.3864V3.17996L96.1284 2.73798C95.795 2.49487 95.1592 2.27356 94.7159 2.24614C94.169 2.21236 105.502 1.93435 106.795 1.94984C106.818 1.95009 106.755 2.73008 106.654 3.68308C106.499 5.14738 106.441 5.30317 106.275 4.68869C105.912 3.33673 105.359 3.11603 102.103 3.02302L99.1748 2.93939V11.3088H102.334C104.424 11.3088 105.595 11.2162 105.796 11.0353C106.297 10.5848 106.36 10.8969 106.156 12.8233C105.981 14.4793 105.943 14.5748 105.767 13.796C105.661 13.3207 105.363 12.8311 105.107 12.7076C104.851 12.5842 103.402 12.411 101.887 12.3229L99.1337 12.1627L99.2182 16.5538C99.2817 19.8361 99.3919 21.041 99.6539 21.325C100.221 21.9393 101.828 22.2035 103.945 22.0311C106.166 21.85 106.726 21.544 107.286 20.2061L107.673 19.2816L107.536 20.7367C107.309 23.1391 107.37 23.1022 103.724 23.0486C101.999 23.0233 99.2581 22.9401 97.6339 22.8636Z" fill="#424236"/>
<path d="M113.854 22.8636C112.229 22.7873 111.214 22.704 111.597 22.6786C112.925 22.5909 112.955 22.3671 112.955 12.3864V3.17996L112.348 2.73798C112.015 2.49487 111.379 2.27356 110.936 2.24614C110.389 2.21236 121.722 1.93435 123.014 1.94984C123.038 1.95009 122.975 2.73008 122.874 3.68308C122.719 5.14738 122.66 5.30317 122.495 4.68869C122.125 3.31352 121.584 3.10483 118.385 3.10483H115.523L115.383 11.3088H118.359C120 11.3088 121.568 11.1968 121.854 11.059C122.139 10.9216 122.421 10.8524 122.479 10.9052C122.538 10.958 122.506 11.8244 122.408 12.8304C122.241 14.5571 122.218 14.6108 121.996 13.7883C121.867 13.3091 121.559 12.8194 121.311 12.7C121.063 12.5808 119.631 12.4115 118.127 12.3242L115.394 12.1651L115.409 16.07C115.426 20.8066 115.614 21.4663 117.058 21.892C118.382 22.2822 121.882 22.0374 122.609 21.5038C122.889 21.2985 123.292 20.7145 123.505 20.2061L123.892 19.2816L123.755 20.7367C123.529 23.1391 123.589 23.1022 119.944 23.0486C118.218 23.0233 115.478 22.9401 113.854 22.8636Z" fill="#424236"/>
<path d="M162.533 22.8712C160.895 22.7947 159.862 22.7114 160.236 22.6861C161.623 22.5919 161.62 22.6138 161.702 12.6529L161.777 3.43068L161.131 2.85267C160.748 2.50962 160.138 2.25362 159.632 2.22291C159.163 2.19443 161.691 2.11633 165.25 2.04933C168.808 1.98233 171.752 1.93833 171.791 1.95157C171.83 1.96478 171.783 2.72822 171.687 3.64809L171.514 5.32057L171.181 4.45716C170.998 3.98228 170.696 3.50828 170.508 3.40381C169.949 3.09118 168.218 2.9356 166.156 3.01237L164.215 3.08465L164.074 11.3001H167.073C168.727 11.3001 170.307 11.188 170.596 11.05C170.883 10.9124 171.178 10.8526 171.249 10.9171C171.321 10.9815 171.285 11.8491 171.167 12.845C171.037 13.9592 170.92 14.3648 170.868 13.8991C170.74 12.7752 170.049 12.5025 166.867 12.3185L164.085 12.1577L164.1 16.068C164.109 18.4567 164.234 20.2935 164.422 20.7877C164.851 21.9048 166.082 22.255 168.831 22.0406C171.17 21.8582 172.004 21.4007 172.383 20.0906C172.566 19.4611 172.592 19.6328 172.5 20.873C172.435 21.7468 172.249 22.606 172.085 22.7822C171.767 23.1248 168.591 23.1545 162.533 22.8712Z" fill="#424236"/>
<path d="M192.669 19.1448C190.473 16.7842 186.791 12.6515 184.491 9.96084C182.19 7.27013 180.25 5.06867 180.182 5.06867C179.989 5.06867 180.365 20.1122 180.585 21.1857C180.83 22.3805 181.041 22.6023 182.143 22.8286C182.692 22.9418 181.846 23.0058 179.888 22.999C178.164 22.9928 177.092 22.9431 177.507 22.8884C177.972 22.827 178.373 22.5825 178.553 22.2499C178.769 21.8469 178.861 19.0082 178.915 11.0181L178.986 0.325439L179.583 0.909575C179.911 1.23085 183.627 5.46007 187.842 10.3078C192.056 15.1556 195.573 19.1219 195.654 19.1219C196.035 19.1219 195.537 2.32394 195.14 1.74978C194.994 1.53794 194.403 1.26714 193.827 1.148C193.01 0.978668 193.467 0.930105 195.918 0.925557C198.119 0.921464 198.847 0.985522 198.358 1.14018C197.063 1.54994 197.083 1.38913 197.057 12.204C197.044 17.704 196.951 22.4812 196.849 22.8201C196.676 23.404 196.455 23.2104 192.669 19.1448Z" fill="#424236"/>
<path d="M10.0665 0.325752C9.78714 0.352762 9.26087 1.89217 6.42766 10.4929C4.75397 15.5737 3.19931 20.1758 2.97886 20.7222C2.46299 22.0009 1.82119 22.6158 0.768818 22.8409C0.248429 22.9524 1.13292 23.0253 3.0774 23.0272C5.12667 23.0292 5.96509 22.9619 5.47045 22.8331C4.56745 22.5981 4.28973 22.1898 4.45692 21.343C4.7512 19.8526 6.43459 14.4928 6.65993 14.327C6.99219 14.0824 12.2422 14.0965 12.5933 14.3424C12.7455 14.4491 13.466 16.2596 14.198 18.3706C15.1731 21.182 15.4766 22.3285 15.3241 22.6469C15.131 23.0503 15.311 23.0815 17.879 23.0583C20.1084 23.0381 20.4711 22.9881 19.7513 22.8021C17.9352 22.3331 17.7708 21.9886 13.5153 9.71677C11.7773 4.70488 10.2734 0.512727 10.1721 0.395608C10.1362 0.354094 10.1064 0.321903 10.0665 0.325752ZM9.58789 4.78068C9.76681 4.84644 12.4012 12.694 12.4173 13.2094C12.4206 13.3117 11.1754 13.3955 9.64423 13.3955H6.857L8.11689 9.04933C8.81084 6.65849 9.47353 4.73865 9.58789 4.78068Z" fill="#424236"/>
<path d="M75.8116 1.95048C74.1279 1.96091 73.3085 2.01355 73.713 2.09812C74.2103 2.20207 74.7401 2.46343 74.8958 2.68128C75.5559 3.60563 75.6387 20.7829 74.9895 22.2362C74.7884 22.6864 74.495 22.9013 73.987 22.9669C73.592 23.0181 74.8236 23.0617 76.7275 23.0629C78.6312 23.0642 79.7259 23.0007 79.1577 22.9227C77.664 22.7177 77.5463 22.3461 77.5425 17.8808L77.5351 14.1603H81.4655L82.5541 15.74C84.5792 18.6605 87.1747 21.8802 87.9555 22.4502C88.6498 22.9572 88.991 23.0208 91.2656 23.0556C92.9794 23.0817 93.4666 23.0444 92.7655 22.93C90.6948 22.5925 89.6383 21.6471 85.8643 16.7661L83.3763 13.5476L84.1768 12.61C87.621 8.57926 87.4424 4.22425 83.7657 2.48935C82.8284 2.04706 82.2442 1.99815 77.7657 1.95786C77.0261 1.9512 76.3728 1.94697 75.8116 1.95048ZM79.6482 2.58533C82.7342 2.60129 84.6465 5.04537 84.4149 8.93383C84.3049 10.7799 83.7487 12.0817 82.7707 12.7947C82.0726 13.3035 80.12 13.5748 79.0352 13.3113C78.7812 13.2498 78.3401 13.1448 78.0544 13.0825C77.5357 12.9691 77.5351 12.9631 77.5351 7.92251V2.8806L78.2564 2.73296C78.7421 2.63347 79.2072 2.58304 79.6482 2.58533Z" fill="#424236"/>
<path d="M45.2241 31.1849C42.9342 31.2073 40.6766 31.8729 39.018 33.1914C37.6124 34.3092 36.0342 36.5129 35.4556 38.1697C33.166 44.7286 36.1547 51.8303 41.9632 53.6369C43.5814 54.1401 47.6291 53.9497 49.1651 53.2949C51.9239 52.1183 54.3919 49.2203 55.266 46.1275C55.9406 43.7403 55.9359 40.1249 55.2587 38.0862C54.7012 36.4076 53.5162 34.5887 52.3137 33.5562C50.4531 31.9592 47.8192 31.1596 45.2241 31.1849ZM44.2145 32.1123C44.5355 32.1096 44.902 32.1154 45.3505 32.1347C47.1919 32.2148 47.6501 32.3252 48.688 32.9406C52.3516 35.1128 54.177 40.5072 53.1062 45.9831C52.4841 49.1638 51.1888 51.0795 48.8285 52.3067C47.6951 52.8956 47.2158 53.0007 45.7991 52.9832C44.8735 52.9716 43.8638 52.88 43.5551 52.7779C40.5009 51.7673 38.1473 48.7202 37.3773 44.7822C36.2814 39.1786 38.1546 34.1091 41.8931 32.5833C42.7297 32.2421 43.2512 32.1208 44.2145 32.1123Z" fill="#424236"/>
<path d="M91.4502 31.1849C88.9842 31.2073 86.5528 31.8729 84.7666 33.1914C83.2528 34.3092 81.5532 36.5129 80.9306 38.1697C78.4647 44.7286 81.683 51.8303 87.9387 53.6369C89.6811 54.1401 94.0402 53.9497 95.6945 53.2949C98.6656 52.1183 101.323 49.2203 102.265 46.1275C102.991 43.7403 102.986 40.1249 102.257 38.0862C101.657 36.4076 100.38 34.5887 99.0852 33.5562C97.0816 31.9592 94.2449 31.1596 91.4502 31.1849ZM90.3629 32.1123C90.7085 32.1096 91.1033 32.1154 91.5863 32.1347C93.5694 32.2148 94.0629 32.3252 95.1808 32.9406C99.1261 35.1128 101.092 40.5072 99.9387 45.9831C99.2687 49.1638 97.8739 51.0795 95.332 52.3067C94.1114 52.8956 93.5951 53.0007 92.0695 52.9832C91.0725 52.9716 89.9851 52.88 89.6528 52.7779C86.3637 51.7673 83.8289 48.7202 82.9997 44.7822C81.8194 39.1786 83.8367 34.1091 87.8629 32.5833C88.7639 32.2421 89.3254 32.1208 90.3629 32.1123Z" fill="#424236"/>
<path d="M111.118 53.6475C111.059 53.4893 110.005 50.046 108.775 45.9958C105.611 35.571 105.203 34.3144 104.82 33.8231C104.634 33.5832 103.978 33.2538 103.363 33.0907C102.328 32.8166 102.512 32.7963 105.867 32.8136C107.859 32.8244 109.207 32.8752 108.863 32.927C107.818 33.0846 107.638 33.4995 107.947 35.0467C108.239 36.5072 111.913 49.6127 112.076 49.7733C112.13 49.8263 112.212 49.8264 112.257 49.7738C112.303 49.7212 113.721 46.0081 115.408 41.523C118.314 33.7974 118.77 32.7406 119.067 33.0331C119.135 33.1008 120.512 36.873 122.125 41.4156C123.739 45.9583 125.103 49.7189 125.158 49.7723C125.212 49.8259 125.303 49.8245 125.359 49.7688C125.673 49.4589 129.929 34.915 129.929 34.1497C129.929 33.385 129.841 33.2145 129.403 33.1224C129.114 33.0615 128.667 32.9681 128.41 32.9145C128.153 32.8611 129.362 32.8158 131.097 32.814C132.941 32.8122 133.951 32.8814 133.529 32.9808C133.133 33.0743 132.684 33.2263 132.532 33.3188C131.929 33.6858 131.028 36.0073 128.196 44.5001C126.571 49.3731 125.138 53.5153 125.011 53.7051C124.81 54.0063 124.74 53.9983 124.463 53.6424C124.289 53.4183 123.402 51.1399 122.493 48.5799C121.583 46.0195 120.295 42.3904 119.629 40.515C118.964 38.6396 118.335 37.1898 118.231 37.2933C118.127 37.3968 116.715 40.9956 115.094 45.2907C113.472 49.5857 112.043 53.2879 111.918 53.5175C111.655 54.0009 111.273 54.0629 111.118 53.6475Z" fill="#424236"/>
<path d="M170.935 53.6824C170.852 53.5495 171.772 51.9486 172.98 50.1243C179.272 40.6258 183.447 34.2436 183.56 33.9522C183.666 33.6837 183.208 33.6273 180.993 33.6358C179.51 33.6411 177.189 33.7362 175.833 33.8466C173.556 34.0319 173.316 34.0987 172.675 34.7293C172.292 35.1047 171.832 35.8236 171.648 36.3267C171.24 37.4562 171.219 37.0797 171.561 34.6754L171.825 32.8091L179.215 32.8877C183.278 32.9309 186.634 32.9959 186.671 33.0322C186.708 33.0681 183.852 37.4745 180.323 42.8239C176.795 48.1733 173.906 52.5968 173.906 52.6535C173.906 52.8151 183.487 52.7746 184.327 52.6094C185.314 52.4154 186.451 51.3491 186.635 50.4454C186.715 50.0486 186.887 49.7239 187.015 49.7239C187.249 49.7239 187.198 50.1932 186.697 52.6984L186.451 53.9234H178.769C173.736 53.9234 171.035 53.8404 170.935 53.6824Z" fill="#424236"/>
<path d="M10.8628 53.7772C12.1473 53.5055 12.1748 53.2851 12.1786 43.2416C12.1813 36.2367 12.1107 33.938 11.8838 33.6385C11.7197 33.4222 11.1557 33.1474 10.6306 33.0277C9.90683 32.8631 10.5422 32.8107 13.2563 32.811C15.6102 32.8113 16.5547 32.8771 16.0131 33.0032C14.6556 33.3186 14.5692 33.6104 14.5692 37.8776V41.7227H27.2205V37.8776C27.2205 35.1726 27.1321 33.9132 26.9222 33.6307C26.7581 33.4098 26.1404 33.1358 25.5497 33.022C24.7321 32.8643 25.3306 32.8134 28.056 32.8092C30.5269 32.8057 31.4148 32.8692 30.9209 33.0147C30.5269 33.1305 30.0705 33.4071 29.9063 33.6289C29.4746 34.2119 29.4828 52.1922 29.9151 53.04C30.1462 53.4933 30.4625 53.6621 31.284 53.7709C31.8718 53.8488 30.7413 53.9123 28.7721 53.9123C26.8028 53.9123 25.479 53.8691 25.8305 53.816C27.0343 53.6343 27.0953 53.3624 27.1775 47.8173L27.2539 42.6659H14.5692V47.3464C14.5692 53.3661 14.6132 53.4988 16.7175 53.8261C17.0458 53.8773 15.703 53.9209 13.7337 53.9234C11.7644 53.9255 10.4725 53.86 10.8628 53.7772Z" fill="#424236"/>
<path d="M62.5894 32.8116C60.0093 32.8275 58.6022 32.9068 59.1193 33.0098C60.8336 33.352 60.7583 32.8678 60.7583 43.314C60.7583 53.4008 60.7356 53.5966 59.5613 53.7802C59.2163 53.834 60.4219 53.8813 62.24 53.8831C64.0582 53.8845 65.2895 53.8459 64.9759 53.7947C63.6073 53.5724 63.4169 53.4565 63.1733 52.7365C63.0344 52.3255 62.924 50.4359 62.924 48.4957V44.9972L66.9141 45.1295L68.054 46.7539C70.7977 50.6635 72.7384 53.0047 73.6255 53.4713C74.3677 53.8621 74.9393 53.9423 76.7676 53.9199C78.719 53.8954 78.8594 53.8663 77.8934 53.6992C77.2856 53.5941 76.4069 53.2527 75.9409 52.9349C74.9818 52.28 72.9301 49.9469 70.4052 46.6509L68.688 44.4092L69.6855 43.2406C72.4383 40.0132 72.7499 36.6265 70.5048 34.3695C69.1911 33.0489 67.8136 32.779 62.5894 32.8116ZM65.2538 33.5022C67.018 33.5566 68.2968 34.4006 69.1298 36.0452C69.6769 37.1256 69.764 37.5792 69.764 39.2276C69.764 41.3967 69.2312 42.8507 68.1252 43.6816C67.5555 44.1099 65.4604 44.4461 64.8621 44.2033C64.7365 44.1526 64.2493 44.0418 63.7791 43.961L62.924 43.814V33.7522L63.9502 33.5906C64.4092 33.5194 64.8468 33.4899 65.2538 33.5022Z" fill="#424236"/>
<path d="M138.969 53.8316C140.286 53.6478 140.357 53.0988 140.354 43.1002C140.351 34.5627 140.32 33.9414 139.872 33.4914C139.609 33.2265 139.027 32.9679 138.578 32.9167C138.129 32.8654 139.455 32.8172 141.525 32.8099C143.895 32.8011 144.967 32.8651 144.421 32.9829C143.943 33.0853 143.418 33.2924 143.253 33.4428C143.035 33.6408 142.952 36.3431 142.952 43.2425C142.952 52.191 142.981 52.798 143.434 53.2526C143.699 53.5191 144.341 53.7779 144.862 53.828C145.382 53.8781 144.114 53.9211 142.044 53.9232C139.974 53.9257 138.59 53.8844 138.969 53.8316Z" fill="#424236"/>
<path d="M154.698 53.8227C155.074 53.7629 155.536 53.433 155.77 53.0575C156.142 52.4601 156.181 51.4566 156.181 42.4978V32.5982L153.176 32.6346C149.881 32.6746 149.376 32.8334 148.668 34.0535C148.223 34.8216 148.207 34.8279 148.228 34.2253C148.24 33.881 148.375 33.0361 148.529 32.3476C148.784 31.2026 148.858 31.1066 149.399 31.2211C149.724 31.2899 153.607 31.3463 158.027 31.3463H166.064L166.051 33.224C166.038 35.0075 166.023 35.0577 165.752 34.2282C165.355 33.0095 164.659 32.7472 161.315 32.5583L158.418 32.3946L158.49 42.5466C158.558 52.0245 158.592 52.733 159.005 53.212C159.248 53.4943 159.837 53.7686 160.314 53.8217C160.791 53.8748 159.575 53.9203 157.61 53.9227C155.646 53.9253 154.335 53.8803 154.698 53.8227Z" fill="#424236"/>
</svg>
