<svg width="205" height="31" viewBox="0 0 205 31" fill="none" xmlns="http://www.w3.org/2000/svg">
<mask id="mask0_31_317" style="mask-type:luminance" maskUnits="userSpaceOnUse" x="0" y="0" width="205" height="31">
<path d="M205 0.322266H0.259155V30.9219H205V0.322266Z" fill="white"/>
</mask>
<g mask="url(#mask0_31_317)">
<path d="M138.486 7.60594L138.572 7.60692L138.579 7.60708L138.65 11.5964C138.65 12.0091 138.864 12.3531 139.291 12.3531L151.517 12.4218C151.731 12.4218 151.872 12.5594 151.872 12.7658V17.5805C151.872 17.7824 151.738 17.9183 151.532 17.9242C151.477 17.9576 151.407 17.9762 151.329 17.9762H139.125C139.085 17.9762 139.046 17.9792 139.008 17.9853C138.77 18.1017 138.65 18.3721 138.65 18.6811L138.579 23.2203C138.579 23.2901 138.562 23.3535 138.533 23.4038C138.642 23.6572 138.932 23.7839 139.266 23.7839L143.951 23.8521C144.163 23.8521 144.304 23.9885 144.304 24.1932V28.9764C144.304 29.181 144.163 29.3175 143.951 29.3175H127.773C127.559 29.3175 127.418 29.181 127.418 28.9764V24.1932C127.418 23.9885 127.559 23.8521 127.773 23.8521L131.959 23.7839C132.313 23.7839 132.668 23.6475 132.739 23.3048V7.31781C132.739 6.90787 132.384 6.7029 131.959 6.7029L127.702 6.63468C127.489 6.63468 127.346 6.49792 127.346 6.29295V1.5104C127.346 1.30543 127.489 1.16883 127.702 1.16883H163.888C164.1 1.16883 164.243 1.37381 164.243 1.5104V9.84568C164.243 10.0506 164.1 10.1874 163.888 10.1874H158.921C158.709 10.1874 158.566 10.0506 158.566 9.84568L158.495 7.4544C158.495 7.04446 158.282 6.77128 157.927 6.7029H139.125C138.699 6.7029 138.486 7.04446 138.486 7.4544V7.60594ZM77.2289 23.6199C77.3716 23.6199 77.584 23.7563 77.6538 23.9626V28.7685C77.6538 28.9748 77.5126 29.1128 77.3001 29.1128H61.1486C60.9361 29.1128 60.7949 28.9748 60.7949 28.7685V23.9626C60.7949 23.7563 60.9361 23.6199 61.1486 23.6199L64.1232 23.5516C64.5498 23.5516 64.6909 23.2771 64.4784 22.9328C63.9821 22.2458 62.4234 19.9817 61.9984 19.5009C61.6449 19.0202 61.1485 18.9503 60.7236 18.9503C60.2986 18.9503 53.4976 18.9503 53.4976 18.9503L48.6804 19.0202C48.4679 19.0202 48.3268 19.1566 48.3268 19.3629V22.9328C48.3268 23.3454 48.6803 23.5516 49.1053 23.5516L53.9226 23.6199C54.1351 23.6199 54.2778 23.7563 54.2778 23.9626V28.7685C54.2778 28.9748 54.1351 29.1128 53.9226 29.1128H37.7709C37.5584 29.1128 37.4173 28.9748 37.4173 28.7685V23.9626C37.4173 23.7563 37.5584 23.6199 37.7709 23.6199L41.8096 23.5516C42.2346 23.5516 42.5882 23.3454 42.5882 22.9328V7.34835C42.5882 6.93645 42.2346 6.73034 41.8096 6.73034L37.7011 6.66181C37.4886 6.66181 37.3459 6.5244 37.3459 6.31845V1.30656C37.3459 1.10062 37.4886 0.963379 37.7011 0.963379H64.6195C69.7206 0.963379 73.8292 5.01408 73.8292 9.95726C73.8292 13.2527 72.058 16.0676 69.3655 17.6466C68.5869 17.9213 68.5155 18.4019 68.7994 18.8821C69.0119 19.2265 71.0669 22.3838 71.4918 23.0709C71.7741 23.4818 71.9866 23.5516 72.4115 23.5516L77.2289 23.6199ZM64.4784 13.3214C66.3908 13.3214 67.9495 11.8109 67.9495 9.95726C67.9495 8.10359 66.3908 6.5931 64.4784 6.5931H63.9821L48.6106 6.66181C48.3981 6.66181 48.2554 6.79904 48.2554 7.00499V12.9094C48.2554 13.1153 48.3981 13.2527 48.6106 13.2527L63.9821 13.3214H64.4784ZM26.7398 29.3175H9.00187C5.08478 29.3175 1.23745 25.9619 -0.400746 21.8527C-0.970061 20.3455 -1.25549 18.7704 -1.25549 17.1951V13.4283C-1.25549 11.853 -0.970061 10.2777 -0.400746 8.77112C1.23745 4.66179 4.87068 1.30576 9.00187 1.30576L33.1515 1.16883C33.3656 1.16883 33.5067 1.30575 33.5067 1.51121V9.86679C33.5067 10.0723 33.3656 10.2093 33.1515 10.2093H27.9514C27.7373 10.2093 27.5946 10.0723 27.5946 9.86679L27.5233 7.60675C27.5233 7.19583 27.3091 6.85329 26.8825 6.85329L9.78523 6.92183C7.93293 6.92183 6.01097 8.63404 5.08482 10.8257C4.72798 11.7161 4.58518 12.5379 4.58518 13.4283V17.2636C4.58518 18.0855 4.72798 18.9763 5.08482 19.8664C5.9396 22.0574 7.86319 23.9073 9.78523 23.9073L26.7398 23.8391C27.168 23.8391 27.5233 23.4964 27.5233 23.0855L27.5946 20.6882C27.5946 20.4819 27.7373 20.3455 27.9514 20.3455H33.1515C33.3656 20.3455 33.5067 20.4819 33.5067 20.6882V28.9066C33.5067 29.1128 33.3656 29.2493 33.1515 29.2493H28.0228L26.7398 29.3175ZM124.273 23.8521C124.485 23.8521 124.626 23.9885 124.555 24.1932V28.9764C124.555 29.181 124.414 29.3175 124.201 29.3175H108.025C107.813 29.3175 107.672 29.181 107.672 28.9764V24.1932C107.672 23.9885 107.813 23.8521 108.025 23.8521L111.999 23.7839C112.424 23.7839 112.779 23.5793 112.779 23.1683V19.548C112.779 19.1371 112.567 18.796 112.14 18.796H93.4827C93.0561 18.796 92.8436 19.1371 92.8436 19.548V23.1683C92.8436 23.5793 93.1988 23.7839 93.6238 23.7839L97.5977 23.8521C97.8101 23.8521 97.9513 23.9885 97.9513 24.1932V28.9764C97.9513 29.181 97.8101 29.3175 97.5977 29.3175H81.4216C81.2091 29.3175 81.0664 29.181 81.0664 28.9764V24.1932C81.0664 23.9885 81.2091 23.8521 81.4216 23.8521L86.3881 23.7839C86.8131 23.7839 87.1683 23.5793 87.1683 23.1683V13.2618C87.1683 13.2618 87.1683 11.7588 87.4522 10.529C88.3735 5.95139 92.7722 1.16883 97.4549 1.16883H108.238C112.851 1.16883 117.248 5.95139 118.242 10.529C118.526 11.7588 118.526 13.2618 118.526 13.2618V23.1683C118.526 23.5793 118.88 23.7839 119.306 23.7839L124.273 23.8521ZM111.999 13.1936C112.567 13.1936 112.851 12.9886 112.851 12.3737C112.779 11.8272 112.637 11.1439 112.069 9.98243C110.935 7.59115 108.736 6.63468 107.033 6.63468H98.7314C97.0299 6.63468 94.8306 7.59115 93.6952 9.98243C93.1275 11.1439 92.9863 11.8954 92.915 12.3737C92.8436 12.9886 93.1275 13.1936 93.6952 13.1936H111.999ZM202.986 1.16883C203.2 1.16883 203.343 1.37381 203.485 1.5104V9.84568C203.485 10.0506 203.343 10.1874 203.129 10.1874H198.143C197.928 10.1874 197.786 10.0506 197.786 9.84568L197.714 7.4544C197.714 7.04446 197.502 6.77128 197.145 6.7029H189.097C188.669 6.7029 188.454 7.04446 188.454 7.4544V23.1683C188.454 23.5793 188.811 23.7839 189.238 23.7839L193.94 23.8521C194.154 23.8521 194.295 23.9885 194.295 24.1932V28.9764C194.295 29.181 194.154 29.3175 193.94 29.3175H177.342C177.13 29.3175 176.987 29.181 176.987 28.9764V24.1932C176.987 23.9885 177.13 23.8521 177.342 23.8521L181.83 23.7839C182.187 23.7839 182.542 23.6475 182.614 23.3048V7.31781C182.614 6.90787 182.259 6.7029 181.83 6.7029H173.782C173.425 6.77128 173.211 7.04446 173.211 7.4544L173.14 9.84568C173.14 10.0506 172.999 10.1874 172.785 10.1874H167.799C167.584 10.1874 167.442 10.0506 167.442 9.84568V1.5104C167.442 1.30543 167.584 1.16883 167.799 1.16883H202.986Z" fill="#424236"/>
<path d="M138.486 7.60594L138.572 7.60692L138.579 7.60708L138.65 11.5964C138.65 12.0091 138.864 12.3531 139.291 12.3531L151.517 12.4218C151.731 12.4218 151.872 12.5594 151.872 12.7658V17.5805C151.872 17.7824 151.738 17.9183 151.532 17.9242C151.477 17.9576 151.407 17.9762 151.329 17.9762H139.125C139.085 17.9762 139.046 17.9792 139.008 17.9853C138.77 18.1017 138.65 18.3721 138.65 18.6811L138.579 23.2203C138.579 23.2901 138.562 23.3535 138.533 23.4038C138.642 23.6572 138.932 23.7839 139.266 23.7839L143.951 23.8521C144.163 23.8521 144.304 23.9885 144.304 24.1932V28.9764C144.304 29.181 144.163 29.3175 143.951 29.3175H127.773C127.559 29.3175 127.418 29.181 127.418 28.9764V24.1932C127.418 23.9885 127.559 23.8521 127.773 23.8521L131.959 23.7839C132.313 23.7839 132.668 23.6475 132.739 23.3048V7.31781C132.739 6.90787 132.384 6.7029 131.959 6.7029L127.702 6.63468C127.489 6.63468 127.346 6.49792 127.346 6.29295V1.5104C127.346 1.30543 127.489 1.16883 127.702 1.16883H163.888C164.1 1.16883 164.243 1.37381 164.243 1.5104V9.84568C164.243 10.0506 164.1 10.1874 163.888 10.1874H158.921C158.709 10.1874 158.566 10.0506 158.566 9.84568L158.495 7.4544C158.495 7.04446 158.282 6.77128 157.927 6.7029H139.125C138.699 6.7029 138.486 7.04446 138.486 7.4544V7.60594ZM77.2289 23.6199C77.3716 23.6199 77.584 23.7563 77.6538 23.9626V28.7685C77.6538 28.9748 77.5126 29.1128 77.3001 29.1128H61.1486C60.9361 29.1128 60.7949 28.9748 60.7949 28.7685V23.9626C60.7949 23.7563 60.9361 23.6199 61.1486 23.6199L64.1232 23.5516C64.5498 23.5516 64.6909 23.2771 64.4784 22.9328C63.9821 22.2458 62.4234 19.9817 61.9984 19.5009C61.6449 19.0202 61.1485 18.9503 60.7236 18.9503C60.2986 18.9503 53.4976 18.9503 53.4976 18.9503L48.6804 19.0202C48.4679 19.0202 48.3268 19.1566 48.3268 19.3629V22.9328C48.3268 23.3454 48.6803 23.5516 49.1053 23.5516L53.9226 23.6199C54.1351 23.6199 54.2778 23.7563 54.2778 23.9626V28.7685C54.2778 28.9748 54.1351 29.1128 53.9226 29.1128H37.7709C37.5584 29.1128 37.4173 28.9748 37.4173 28.7685V23.9626C37.4173 23.7563 37.5584 23.6199 37.7709 23.6199L41.8096 23.5516C42.2346 23.5516 42.5882 23.3454 42.5882 22.9328V7.34835C42.5882 6.93645 42.2346 6.73034 41.8096 6.73034L37.7011 6.66181C37.4886 6.66181 37.3459 6.5244 37.3459 6.31845V1.30656C37.3459 1.10062 37.4886 0.963379 37.7011 0.963379H64.6195C69.7206 0.963379 73.8292 5.01408 73.8292 9.95726C73.8292 13.2527 72.058 16.0676 69.3655 17.6466C68.5869 17.9213 68.5155 18.4019 68.7994 18.8821C69.0119 19.2265 71.0669 22.3838 71.4918 23.0709C71.7741 23.4818 71.9866 23.5516 72.4115 23.5516L77.2289 23.6199ZM64.4784 13.3214C66.3908 13.3214 67.9495 11.8109 67.9495 9.95726C67.9495 8.10359 66.3908 6.5931 64.4784 6.5931H63.9821L48.6106 6.66181C48.3981 6.66181 48.2554 6.79904 48.2554 7.00499V12.9094C48.2554 13.1153 48.3981 13.2527 48.6106 13.2527L63.9821 13.3214H64.4784ZM26.7398 29.3175H9.00187C5.08478 29.3175 1.23745 25.9619 -0.400746 21.8527C-0.970061 20.3455 -1.25549 18.7704 -1.25549 17.1951V13.4283C-1.25549 11.853 -0.970061 10.2777 -0.400746 8.77112C1.23745 4.66179 4.87068 1.30576 9.00187 1.30576L33.1515 1.16883C33.3656 1.16883 33.5067 1.30575 33.5067 1.51121V9.86679C33.5067 10.0723 33.3656 10.2093 33.1515 10.2093H27.9514C27.7373 10.2093 27.5946 10.0723 27.5946 9.86679L27.5233 7.60675C27.5233 7.19583 27.3091 6.85329 26.8825 6.85329L9.78523 6.92183C7.93293 6.92183 6.01097 8.63404 5.08482 10.8257C4.72798 11.7161 4.58518 12.5379 4.58518 13.4283V17.2636C4.58518 18.0855 4.72798 18.9763 5.08482 19.8664C5.9396 22.0574 7.86319 23.9073 9.78523 23.9073L26.7398 23.8391C27.168 23.8391 27.5233 23.4964 27.5233 23.0855L27.5946 20.6882C27.5946 20.4819 27.7373 20.3455 27.9514 20.3455H33.1515C33.3656 20.3455 33.5067 20.4819 33.5067 20.6882V28.9066C33.5067 29.1128 33.3656 29.2493 33.1515 29.2493H28.0228L26.7398 29.3175ZM124.273 23.8521C124.485 23.8521 124.626 23.9885 124.555 24.1932V28.9764C124.555 29.181 124.414 29.3175 124.201 29.3175H108.025C107.813 29.3175 107.672 29.181 107.672 28.9764V24.1932C107.672 23.9885 107.813 23.8521 108.025 23.8521L111.999 23.7839C112.424 23.7839 112.779 23.5793 112.779 23.1683V19.548C112.779 19.1371 112.567 18.796 112.14 18.796H93.4827C93.0561 18.796 92.8436 19.1371 92.8436 19.548V23.1683C92.8436 23.5793 93.1988 23.7839 93.6238 23.7839L97.5977 23.8521C97.8101 23.8521 97.9513 23.9885 97.9513 24.1932V28.9764C97.9513 29.181 97.8101 29.3175 97.5977 29.3175H81.4216C81.2091 29.3175 81.0664 29.181 81.0664 28.9764V24.1932C81.0664 23.9885 81.2091 23.8521 81.4216 23.8521L86.3881 23.7839C86.8131 23.7839 87.1683 23.5793 87.1683 23.1683V13.2618C87.1683 13.2618 87.1683 11.7588 87.4522 10.529C88.3735 5.95139 92.7722 1.16883 97.4549 1.16883H108.238C112.851 1.16883 117.248 5.95139 118.242 10.529C118.526 11.7588 118.526 13.2618 118.526 13.2618V23.1683C118.526 23.5793 118.88 23.7839 119.306 23.7839L124.273 23.8521ZM111.999 13.1936C112.567 13.1936 112.851 12.9886 112.851 12.3737C112.779 11.8272 112.637 11.1439 112.069 9.98243C110.935 7.59115 108.736 6.63468 107.033 6.63468H98.7314C97.0299 6.63468 94.8306 7.59115 93.6952 9.98243C93.1275 11.1439 92.9863 11.8954 92.915 12.3737C92.8436 12.9886 93.1275 13.1936 93.6952 13.1936H111.999ZM202.986 1.16883C203.2 1.16883 203.343 1.37381 203.485 1.5104V9.84568C203.485 10.0506 203.343 10.1874 203.129 10.1874H198.143C197.928 10.1874 197.786 10.0506 197.786 9.84568L197.714 7.4544C197.714 7.04446 197.502 6.77128 197.145 6.7029H189.097C188.669 6.7029 188.454 7.04446 188.454 7.4544V23.1683C188.454 23.5793 188.811 23.7839 189.238 23.7839L193.94 23.8521C194.154 23.8521 194.295 23.9885 194.295 24.1932V28.9764C194.295 29.181 194.154 29.3175 193.94 29.3175H177.342C177.13 29.3175 176.987 29.181 176.987 28.9764V24.1932C176.987 23.9885 177.13 23.8521 177.342 23.8521L181.83 23.7839C182.187 23.7839 182.542 23.6475 182.614 23.3048V7.31781C182.614 6.90787 182.259 6.7029 181.83 6.7029H173.782C173.425 6.77128 173.211 7.04446 173.211 7.4544L173.14 9.84568C173.14 10.0506 172.999 10.1874 172.785 10.1874H167.799C167.584 10.1874 167.442 10.0506 167.442 9.84568V1.5104C167.442 1.30543 167.584 1.16883 167.799 1.16883H202.986Z" fill="#424236"/>
</g>
</svg>
