<svg width="229" height="50" viewBox="0 0 229 50" fill="none" xmlns="http://www.w3.org/2000/svg">
<mask id="mask0_31_213" style="mask-type:luminance" maskUnits="userSpaceOnUse" x="0" y="0" width="229" height="50">
<path d="M228.568 0.338867H0.956787V49.8867H228.568V0.338867Z" fill="white"/>
</mask>
<g mask="url(#mask0_31_213)">
<path fill-rule="evenodd" clip-rule="evenodd" d="M58.0796 4.24835C56.2208 4.54214 55.9581 4.61781 54.654 5.23108C51.8236 6.56318 49.6113 8.63773 48.2228 11.2658C47.5692 12.5028 47.1215 13.523 47.1215 13.782C47.1215 13.9126 47.0566 14.0591 46.9755 14.1078C46.8944 14.1557 46.7874 14.4286 46.7371 14.7141C46.6868 15.0003 46.4971 15.9865 46.3138 16.906C45.7088 19.9411 45.9115 24.4534 46.7906 27.619C46.8815 27.9476 47.0226 28.449 47.1021 28.7337C48.012 31.9806 50.8213 35.2894 53.8284 36.6547C55.9289 37.6089 56.7853 37.7737 59.6562 37.7737C67.286 37.7737 72.3952 33.3613 72.3628 26.7988C72.3384 21.9427 70.2104 18.8508 65.6608 17.063C64.0177 16.4171 60.0519 16.2011 58.5386 16.6755C56.2662 17.3874 54.1966 18.6263 52.8179 20.1009C51.5852 21.4212 51.3403 19.7174 52.2453 16.1095C53.9906 9.15583 61.9399 6.47777 67.3103 11.0352C67.8018 11.452 67.9413 11.5039 68.0662 11.3193C68.1505 11.1942 68.5706 10.533 68.9988 9.85037C69.4286 9.16695 69.9038 8.4141 70.0563 8.17726C70.4764 7.52164 70.4294 7.41048 69.4237 6.69237C66.1717 4.36988 62.4233 3.56214 58.0796 4.24835ZM36.6922 4.80326C36.1634 5.20746 27.4404 13.707 27.3772 13.8787C27.3317 14.0063 27.8102 14.5399 29.7745 16.5477C30.4622 17.2498 30.2546 17.3762 33.1271 14.4911C34.7377 12.8723 35.7644 11.9569 35.8861 12.0297C36.0337 12.1172 36.0823 15.1933 36.0823 24.5519C36.0823 32.9829 36.1358 36.9915 36.2526 37.0609C36.4586 37.1848 41.5468 37.1634 41.6749 37.0381C41.8874 36.8333 41.8566 4.74422 41.6441 4.61017C41.2159 4.33863 37.0896 4.49976 36.6922 4.80326ZM191.132 9.45169C191.124 10.7047 191.129 12.0999 191.144 12.5541C191.174 13.5904 190.994 13.6987 189.332 13.6376C187.251 13.5605 187.066 13.6258 186.998 14.46C186.905 15.5975 186.964 15.6316 189.006 15.6316C190.586 15.6316 190.824 15.6677 190.967 15.9261C191.067 16.1087 191.135 19.5896 191.144 25.125C191.158 35.2171 191.168 35.3102 192.323 36.5819C193.701 38.0987 197.408 38.2884 199.125 36.9292L199.609 36.5473L199.249 35.8067C198.835 34.9574 198.79 34.943 197.948 35.4149C196.467 36.2464 194.595 35.8249 193.877 34.4989C193.468 33.7482 193.242 16.3088 193.633 15.8517C193.778 15.6836 194.365 15.6316 196.118 15.6316H198.412L198.313 13.8L196.253 13.7612C193.129 13.7015 193.468 14.1002 193.414 10.413L193.371 7.26882L191.145 7.17438L191.132 9.45169ZM13.094 13.2389C12.6415 13.3126 11.9521 13.4244 11.5645 13.4882C11.1785 13.5516 10.8216 13.6661 10.773 13.7417C10.7243 13.8174 10.5443 13.8793 10.374 13.8793C9.80303 13.8793 7.51116 15.0003 6.37416 15.8358C5.05873 16.8019 5.06359 16.7372 6.20871 18.6347C7.08133 20.0814 7.20135 20.1376 7.95233 19.4528C10.7438 16.9095 16.9933 16.5212 19.1343 18.7583C20.1869 19.8599 20.3297 20.3085 20.3864 22.7205C20.4481 25.3868 20.3686 25.593 19.5138 24.9396C18.1513 23.8943 17.5674 23.5575 16.5099 23.2039C9.82247 20.9703 3.90873 24.0999 3.8763 29.8887C3.85521 33.6933 5.53073 35.9485 9.43321 37.3682C12.3885 38.444 17.3744 37.3562 19.6711 35.1351C20.1772 34.647 20.427 34.9657 20.427 36.1007V37.1452L25.4519 37.057L25.5038 29.6498C25.5719 19.5876 25.4194 18.516 23.585 16.2288C22.4934 14.8697 20.826 13.9037 18.7466 13.4257C17.7199 13.1903 14.1304 13.0716 13.094 13.2389ZM108.835 13.1723C108.653 13.2126 108.097 13.3292 107.599 13.4314C96.1799 15.7642 95.5149 33.2891 106.692 37.3126C110.312 38.616 115.17 37.5779 117.949 34.9072C118.977 33.9176 118.987 33.8288 118.143 33.0925L117.483 32.5155L116.477 33.4788C113.274 36.548 107.587 36.4762 104.35 33.3274C99.3298 28.4448 100.498 18.798 106.445 15.999C109.892 14.3773 114.041 14.9043 116.523 17.279L117.454 18.1701L118.977 17.0456L118.622 16.5642C116.873 14.1897 111.929 12.4763 108.835 13.1723ZM172.525 13.1785C170.551 13.5238 168.246 14.705 166.762 16.1309C165.534 17.3102 165.438 17.2568 165.438 15.3891C165.438 13.6639 165.341 13.5376 164.042 13.5855C163.038 13.6224 163.117 12.1187 163.169 30.2868L163.213 46.2963H165.356L165.4 40.0434C165.448 33.0342 165.39 33.2975 166.618 34.5481C168.815 36.7848 171.114 37.7737 174.121 37.7737C175.631 37.7737 176.009 37.7159 177.884 37.1986C186.495 34.8226 187.838 18.9604 179.812 14.4044C178.064 13.4112 174.56 12.8223 172.525 13.1785ZM211.662 13.173C211.48 13.2147 210.886 13.3299 210.343 13.4286C209.8 13.5278 209.281 13.6599 209.19 13.7223C209.099 13.7848 208.833 13.88 208.598 13.9342C207.268 14.2405 204.754 16.3323 203.548 18.1347C203.005 18.9487 202.746 19.4522 202.178 20.8085C200.882 23.8998 201.403 29.686 203.203 32.2231C203.368 32.4557 203.505 32.7245 203.505 32.8203C203.505 32.9161 203.573 32.9946 203.659 32.9946C203.743 32.9946 203.858 33.137 203.917 33.3113C203.973 33.4857 204.578 34.1633 205.263 34.8177C209.822 39.1822 217.794 38.7767 221.898 33.971C225.359 29.9186 225.896 23.0372 223.095 18.6666C222.84 18.268 222.516 17.7463 222.376 17.5082C221.57 16.1358 218.944 14.2467 217.098 13.7112C216.737 13.6063 216.263 13.4543 216.046 13.3744C215.606 13.2118 212.179 13.0549 211.662 13.173ZM131.74 13.4286C130.019 13.9898 128.722 14.8343 127.017 16.5038C125.64 17.8512 125.56 17.8027 125.56 15.6191C125.56 13.5827 125.403 13.3799 124.041 13.6578L123.337 13.8015V37.057H125.478L125.564 19.5154L126.381 18.6284C127.912 16.9672 130.407 15.7275 132.658 15.5108L133.883 15.3927L133.979 13.2425L133.108 13.255C132.627 13.2618 132.011 13.3404 131.74 13.4286ZM76.455 13.6841C76.1387 13.7182 75.8257 13.8299 75.7576 13.9321C75.5824 14.1981 75.6002 17.6666 75.777 17.7721C75.8581 17.8201 78.4533 17.8624 81.5464 17.8665C84.6379 17.8701 87.2785 17.9138 87.4131 17.9638C87.9565 18.1658 87.6905 18.586 84.6444 22.3254C84.5357 22.4587 84.2276 22.8526 83.9599 23.2011C83.6923 23.5498 83.4328 23.8714 83.3809 23.9151C83.3306 23.959 82.5261 24.9625 81.5967 26.1453C80.6657 27.328 79.0907 29.2991 78.0981 30.5257C75.623 33.5808 75.6067 33.6106 75.6651 35.5088L75.7122 37.057L94.9099 37.1388V33.1544L94.2919 33.1481C93.9513 33.1447 91.2913 33.1474 88.3782 33.1538C83.7069 33.1648 83.05 33.1356 82.8148 32.9085C82.5034 32.6077 82.4823 32.6488 83.7783 31.0305C84.3265 30.3444 84.998 29.4818 85.2705 29.1143C85.5414 28.7469 86.2096 27.9044 86.753 27.2426C87.2963 26.5801 87.89 25.8417 88.0716 25.6007C88.2517 25.3605 88.5128 25.0312 88.6491 24.8687C88.7837 24.7069 89.6368 23.6289 90.5435 22.474C91.4502 21.3184 92.7478 19.6841 93.4274 18.8423L94.6617 17.3109L94.7185 15.6997C94.7996 13.316 95.7858 13.5446 85.6241 13.587C80.8976 13.6063 76.7713 13.6501 76.455 13.6841ZM137.2 13.846C137.135 13.9467 139.417 19.5111 140.054 20.8085C140.14 20.9843 140.405 21.5933 140.642 22.1628C140.878 22.7324 141.217 23.5081 141.397 23.8867C141.576 24.2651 141.939 25.1027 142.204 25.7473C142.47 26.3918 142.826 27.2288 143 27.6072C143.174 27.9858 143.514 28.7615 143.759 29.3311C144.004 29.9005 144.265 30.5096 144.341 30.6853C144.416 30.8604 144.625 31.3264 144.804 31.7203C145.53 33.3189 147.311 37.6284 147.311 37.789C147.311 37.8834 147.104 38.4029 146.847 38.9425C146.591 39.4822 146.166 40.3898 145.902 40.9594C144.194 44.6453 142.972 45.5237 140.436 44.8885L139.581 44.6737L139.409 45.1501C138.971 46.3676 139.119 46.6213 140.402 46.8552C142.233 47.1891 144.332 46.6554 145.644 45.5191C146.04 45.1766 147.311 43.5911 147.311 43.4397C147.311 43.3945 147.506 42.9435 147.743 42.4376C148.216 41.4234 148.51 40.7677 148.761 40.1629C148.852 39.944 149.082 39.4254 149.274 39.0097C149.464 38.5946 149.619 38.2236 149.619 38.1856C149.619 38.1473 149.879 37.5722 150.197 36.9084C150.513 36.2451 150.772 35.6623 150.772 35.6137C150.772 35.5658 150.917 35.22 151.094 34.8449C151.27 34.4705 151.559 33.8112 151.734 33.3802C151.911 32.9494 152.286 32.1112 152.568 31.5174C152.849 30.9236 153.081 30.3936 153.081 30.3387C153.081 30.2249 154.698 26.5481 155.403 25.059C155.666 24.5055 155.882 23.9637 155.882 23.8561C155.882 23.7485 155.943 23.5922 156.021 23.5089C156.097 23.4254 156.281 23.0561 156.428 22.6872C156.576 22.3184 156.853 21.6739 157.046 21.2537C157.239 20.8336 157.473 20.3112 157.565 20.0918C157.656 19.873 157.799 19.5682 157.88 19.4139C157.961 19.2597 158.247 18.6021 158.514 17.9519C158.78 17.3019 159.16 16.4241 159.354 16.0018C159.549 15.5795 159.818 14.9954 159.951 14.7044C160.328 13.8793 160.167 13.7203 158.955 13.7203C157.684 13.7203 157.804 13.5889 156.712 16.1892C156.234 17.3283 155.304 19.5147 154.647 21.0481C153.989 22.581 152.8 25.3764 152.005 27.2599C151.21 29.1442 150.497 30.7534 150.419 30.8367C150.341 30.9194 150.278 31.0854 150.278 31.2049C150.278 31.3243 150.086 31.8292 149.85 32.3279C149.614 32.8258 149.308 33.4849 149.168 33.7914C149.031 34.0982 148.889 34.3781 148.857 34.4144C148.751 34.5311 148.137 33.908 148.137 33.685C148.137 33.5655 148.064 33.344 147.975 33.1919C147.887 33.0397 147.624 32.4495 147.391 31.8799C146.924 30.736 146.842 30.5486 146.34 29.4526C146.15 29.0373 145.994 28.6559 145.994 28.6059C145.994 28.5552 145.801 28.1066 145.564 27.6087C145.329 27.1107 144.951 26.2369 144.724 25.6674C144.495 25.098 144.171 24.3291 143.999 23.9596C143.829 23.5901 143.199 22.1206 142.601 20.6939C142.002 19.2682 141.444 18.0325 141.363 17.9498C141.282 17.8665 141.214 17.7041 141.214 17.5894C141.214 17.4749 141.06 17.0408 140.872 16.6255C139.865 14.4106 139.636 13.9488 139.485 13.8424C139.263 13.6841 137.3 13.6877 137.2 13.846ZM214.544 15.1593C220.368 15.8899 224.068 23.3671 221.672 29.57C220.852 31.6965 220.625 32.055 219.308 33.3128C217.366 35.1666 215.807 35.7827 213.061 35.7827C206.307 35.7827 202.407 29.3608 204.466 21.6323C205.644 17.2165 209.777 14.5613 214.544 15.1593ZM175.959 15.4523C179.357 16.4747 181.293 18.7069 182.232 22.683C182.464 23.6624 182.464 27.5858 182.234 28.4365C182.137 28.7969 181.978 29.379 181.88 29.7297C181.493 31.1369 180.701 32.4265 179.53 33.5523C178.473 34.5676 178.025 34.8718 177.055 35.2303C176.875 35.297 176.466 35.4489 176.15 35.5673C175.378 35.8553 171.667 35.8546 170.877 35.5658C168.64 34.749 166.699 33.462 165.74 32.1598C165.365 31.652 165.052 21.9177 165.348 20.0098C165.8 17.088 172.225 14.3287 175.959 15.4523ZM62.2205 21.3807C65.0071 22.4699 66.2122 23.8596 66.5009 26.3182C67.3427 33.4822 55.9224 35.6907 52.7384 28.9796C51.1343 25.5973 51.5041 24.4347 54.8535 22.3434C56.7398 21.1641 60.4315 20.6822 62.2205 21.3807ZM16.2131 25.9042C19.4149 26.6432 20.427 27.678 20.427 30.2158V31.9861L19.809 32.5856C16.3882 35.9041 9.90844 35.0104 8.96283 31.0888C8.09831 27.5071 11.7721 24.8791 16.2131 25.9042Z" fill="#424236" stroke="#424236" stroke-width="0.50844"/>
<mask id="mask1_31_213" style="mask-type:luminance" maskUnits="userSpaceOnUse" x="-1081" y="-610" width="2337" height="1221">
<path d="M1255.01 -609.117H-1080.64V610.641H1255.01V-609.117Z" fill="white"/>
</mask>
<g mask="url(#mask1_31_213)">
<mask id="mask2_31_213" style="mask-type:luminance" maskUnits="userSpaceOnUse" x="-1738" y="-610" width="3650" height="1221">
<g opacity="0.35">
<path d="M-1737.54 -609.118H1911.92V610.64H-1737.54V-609.118Z" fill="white"/>
</g>
</mask>
<g mask="url(#mask2_31_213)">
<path fill-rule="evenodd" clip-rule="evenodd" d="M1100.31 -612.243C1100.91 -612.494 1101.61 -612.355 1102.08 -611.89L1302.05 -411.64V-610.742C1302.05 -611.398 1302.44 -611.991 1303.06 -612.243C1303.66 -612.494 1304.36 -612.355 1304.83 -611.89L1506.42 -410.016L1708.02 -611.89C1708.33 -612.196 1708.73 -612.366 1709.17 -612.366C1709.61 -612.366 1710.01 -612.196 1710.32 -611.89L1913.07 -408.868C1913.7 -408.235 1913.7 -407.205 1913.07 -406.571L1711.46 -204.684C1823.27 -203.46 1913.54 -112.311 1913.54 -0.0509644C1913.54 0.379456 1913.36 0.79364 1913.07 1.09735C1912.76 1.40271 1912.35 1.57324 1911.92 1.57324H1713.08L1913.07 201.823C1913.36 202.127 1913.54 202.541 1913.54 202.971V609.016C1913.54 609.912 1912.81 610.64 1911.92 610.64H1506.42C1505.53 610.64 1504.8 609.912 1504.8 609.016V409.914L1304.83 610.164C1304.19 610.799 1303.15 610.799 1302.52 610.164L1099.77 407.142C1099.14 406.509 1099.14 405.479 1099.77 404.845L1299.8 204.56C1188.71 202.489 1099.3 111.675 1099.3 -0.0509644H899.801V197.426L1040.39 56.641C1041.03 56.0059 1042.06 56.0059 1042.7 56.641C1043.33 57.2744 1043.33 58.3026 1042.7 58.9376L902.088 199.725L1100.93 199.723C1101.82 199.723 1102.55 200.451 1102.55 201.347C1102.55 202.244 1101.82 202.971 1100.93 202.971L902.088 202.973L1042.7 343.757C1043.33 344.392 1043.33 345.42 1042.7 346.055C1042.05 346.688 1041.03 346.688 1040.39 346.055L899.801 205.27V404.369V404.376C1011.93 405.248 1102.55 496.535 1102.55 609.016C1102.55 609.912 1101.82 610.64 1100.93 610.64H695.432C694.994 610.64 694.588 610.47 694.28 610.164C693.988 609.861 693.81 609.446 693.81 609.016C693.81 496.535 784.43 405.248 896.557 404.376V404.369V205.27L755.964 346.055C755.331 346.688 754.31 346.688 753.661 346.055C753.028 345.42 753.028 344.392 753.661 343.757L894.27 202.973L496.6 202.971L696.583 403.221C697.216 403.855 697.216 404.884 696.583 405.518L493.831 608.54C493.198 609.175 492.17 609.175 491.537 608.54L288.79 405.518C288.156 404.884 288.156 403.855 288.79 403.221L488.769 202.971H291.559C291.559 307.219 213.717 393.262 113.061 405.994C213.717 418.726 291.559 504.768 291.559 609.016C291.559 609.912 290.832 610.64 289.937 610.64H-521.053C-521.948 610.64 -522.675 609.912 -522.675 609.016V409.914L-722.654 610.164C-723.286 610.799 -724.315 610.799 -724.947 610.164L-924.926 409.914V607.392C-924.926 608.288 -925.651 609.016 -926.548 609.016H-1737.54C-1737.97 609.016 -1738.38 608.845 -1738.68 608.54C-1738.99 608.236 -1739.16 607.822 -1739.16 607.392C-1739.16 503.144 -1661.32 417.101 -1560.66 404.369C-1661.32 391.638 -1739.16 305.595 -1739.16 201.347C-1739.16 89.6216 -1649.75 -1.19275 -1538.67 -3.26355L-1738.68 -203.549C-1739.32 -204.183 -1739.32 -205.212 -1738.68 -205.846L-1537.08 -407.72L-1738.68 -609.594C-1739.15 -610.058 -1739.29 -610.757 -1739.04 -611.364C-1738.79 -611.97 -1738.19 -612.366 -1737.54 -612.366H-521.053C-520.623 -612.366 -520.21 -612.196 -519.906 -611.89C-519.601 -611.587 -519.431 -611.172 -519.431 -610.742C-519.431 -498.261 -610.054 -406.974 -722.179 -406.102V-406.095V-206.994L-581.582 -347.779C-580.95 -348.414 -579.923 -348.414 -579.289 -347.779C-578.656 -347.146 -578.656 -346.118 -579.289 -345.483L-719.885 -204.697H-320.599L-522.2 -406.571C-522.834 -407.205 -522.834 -408.235 -522.2 -408.868L-319.452 -611.89C-319.149 -612.196 -318.735 -612.366 -318.305 -612.366C-317.875 -612.366 -317.462 -612.196 -317.158 -611.89L-117.145 -411.605C-115.077 -522.835 -24.3851 -612.366 87.1892 -612.366C199.518 -612.366 290.681 -521.62 291.552 -409.344H488.769L288.79 -609.594C288.326 -610.058 288.187 -610.757 288.438 -611.364C288.689 -611.97 289.281 -612.366 289.937 -612.366H695.432C696.08 -612.366 696.68 -611.97 696.924 -611.364C697.183 -610.757 697.037 -610.058 696.583 -609.594L496.6 -409.344H693.81C694.686 -521.62 785.857 -612.366 898.179 -612.366C998.596 -612.366 1082.11 -539.835 1099.3 -444.236V-610.742C1099.3 -611.398 1099.69 -611.991 1100.31 -612.243ZM1099.3 -409.344C1098.43 -519.825 1008.72 -609.118 898.179 -609.118C787.641 -609.118 697.929 -519.825 697.054 -409.344H1099.3ZM693.81 -406.095H291.559V-3.29932H492.582H492.684H492.786H693.81V-406.095ZM699.34 -3.29932H1097.02L898.179 -202.401L699.34 -3.29932ZM900.466 -204.697L1099.3 -403.799V-204.697C1099.3 -204.041 1099.69 -203.448 1100.31 -203.197C1100.91 -202.945 1101.61 -203.085 1102.08 -203.549L1302.05 -403.799V-204.697V-204.691C1191.76 -203.832 1102.26 -115.48 1099.37 -5.52441L900.466 -204.697ZM1305.96 -204.684C1409.04 -203.556 1493.8 -126.012 1506.42 -25.9582C1519.04 -126.012 1603.8 -203.556 1706.88 -204.684L1506.42 -405.423L1305.96 -204.684ZM1504.13 -407.72L1305.3 -606.821V-208.618L1504.13 -407.72ZM1508.71 -407.72L1709.17 -206.994L1909.63 -407.72L1709.17 -608.445L1508.71 -407.72ZM1504.8 -0.0509644C1504.8 -111.28 1414.75 -201.449 1303.67 -201.449C1192.6 -201.449 1102.55 -111.28 1102.55 -0.0509644C1102.55 111.178 1192.6 201.347 1303.67 201.347C1414.75 201.347 1504.8 111.178 1504.8 -0.0509644ZM1508.04 1.57324C1507.17 112.553 1418.09 202.499 1307.55 204.56L1504.8 402.073V202.971C1504.8 202.541 1504.98 202.127 1505.27 201.823L1705.26 1.57324H1508.04ZM1709.17 2.24567L1510.33 201.347H1908.01L1709.17 2.24567ZM1910.29 204.596H1508.04V405.981V406.007V607.392H1910.29V204.596ZM1504.13 405.994L1303.67 205.268L1103.21 405.994L1303.67 606.719L1504.13 405.994ZM1508.04 -1.67511H1910.29C1909.42 -112.157 1819.71 -201.449 1709.17 -201.449C1598.63 -201.449 1508.92 -112.157 1508.04 -1.67511ZM1301.39 -407.72L1102.55 -606.821V-208.618L1301.39 -407.72ZM898.179 -206.994L699.34 -406.095H1097.02L898.179 -206.994ZM697.054 -403.799L895.892 -204.697L697.054 -5.59589V-403.799ZM896.557 -0.0509644H529.151C624.113 17.076 696.275 99.888 697.054 199.723L894.27 199.725L753.661 58.9376C753.028 58.3026 753.028 57.2744 753.661 56.641C754.293 56.0059 755.331 56.0059 755.964 56.641L896.557 197.426V-0.0509644ZM693.81 199.723C692.934 89.2756 603.271 0.00427246 492.785 -0.0509644C492.752 -0.0509644 492.718 -0.0509644 492.684 -0.0509644C492.65 -0.0509644 492.618 -0.0509644 492.583 -0.0509644C382.093 0.00262451 292.436 89.2756 291.565 199.723H492.673H492.696H693.81ZM291.559 164.831C306.624 81.08 372.58 15.0344 456.217 -0.0509644H291.559V164.831ZM288.315 -371.203C271.119 -275.603 187.613 -203.073 87.1892 -203.073C-13.234 -203.073 -96.74 -275.603 -113.936 -371.203V-203.088V-203.06V-0.0654907V-0.0379028V166.455C-96.74 70.8558 -13.234 -1.67511 87.1892 -1.67511C187.613 -1.67511 271.119 70.8558 288.315 166.455V-371.203ZM288.315 202.971C288.315 91.7427 198.267 1.57324 87.1892 1.57324C-23.8888 1.57324 -113.936 91.7427 -113.936 202.971C-113.936 314.2 -23.8888 404.369 87.1892 404.369C198.267 404.369 288.315 314.2 288.315 202.971ZM61.317 405.994C-27.3047 394.784 -98.2404 326.745 -113.936 239.488V572.5C-98.2404 485.242 -27.3047 417.204 61.317 405.994ZM-117.18 607.392V204.596H-318.289C-318.301 204.596 -318.31 204.596 -318.322 204.596H-519.431V405.984V406.003V607.392H-117.18ZM-522.675 402.073V204.596H-719.885L-522.675 402.073ZM-723.812 201.347H-723.789H-522.682C-523.553 90.8657 -613.263 1.57324 -723.801 1.57324C-834.338 1.57324 -924.049 90.8657 -924.92 201.347H-723.812ZM-928.144 199.723C-926.42 88.738 -836.465 -0.804504 -725.422 -1.66858V-199.151L-866.017 -58.3654C-866.65 -57.732 -867.678 -57.732 -868.311 -58.3654C-868.945 -59.0005 -868.945 -60.0286 -868.311 -60.6636L-727.716 -201.449H-926.548C-927.443 -201.449 -928.17 -202.177 -928.17 -203.073H-1125.38L-925.401 -2.82336C-924.767 -2.18994 -924.767 -1.16028 -925.401 -0.526855L-1125.38 199.723H-928.144ZM-1129.28 202.971C-1129.29 202.971 -1129.3 202.971 -1129.31 202.971H-1330.42V605.768H-928.17V202.971H-1129.28ZM-924.926 204.596H-727.716L-924.926 402.073V204.596ZM-924.255 405.994L-723.801 606.719L-523.347 405.994L-723.801 205.268L-924.255 405.994ZM-1333.66 570.875V237.864C-1349.36 325.121 -1420.3 393.159 -1508.92 404.369C-1420.3 415.58 -1349.36 483.618 -1333.66 570.875ZM-1328.13 199.723H-1130.92V2.24567L-1328.13 199.723ZM-1127.67 -1.68323V-1.67511V-1.66534V197.426L-928.841 -1.67511L-1127.67 -200.777V-1.68323ZM-1130.92 -203.073V-5.59589L-1328.13 -203.073H-1130.92ZM-1129.31 -206.322H-1129.29H-928.17V-609.118H-1330.42V-206.322H-1129.31ZM-1333.66 -208.618V-606.821L-1532.5 -407.72L-1333.66 -208.618ZM-1534.79 -405.423L-1735.24 -204.697L-1534.79 -3.97168L-1334.34 -204.697L-1534.79 -405.423ZM-1333.66 -200.777V164.831C-1350.64 70.4644 -1432.22 -1.42334 -1530.91 -3.26355L-1333.66 -200.777ZM-1330.42 -200.777V197.426L-1131.59 -1.67511L-1330.42 -200.777ZM-1534.79 -410.016L-1335.96 -609.118H-1733.62L-1534.79 -410.016ZM-924.926 -574.226V-204.697H-727.716L-868.312 -345.483C-868.945 -346.118 -868.945 -347.146 -868.312 -347.779C-867.678 -348.414 -866.652 -348.414 -866.019 -347.779L-725.422 -206.994V-406.095V-406.102C-825.122 -406.878 -907.822 -479.141 -924.926 -574.226ZM-722.179 -199.151V-1.66858C-610.596 -0.799622 -520.305 89.6135 -519.438 201.347H-322.221L-522.2 1.09735C-522.664 0.632812 -522.803 -0.0655518 -522.552 -0.672974C-522.3 -1.27881 -521.708 -1.67511 -521.053 -1.67511H-322.221L-521.725 -201.449H-719.885L-579.29 -60.6636C-578.656 -60.0286 -578.656 -59.0005 -579.29 -58.3654C-579.923 -57.732 -580.951 -57.732 -581.584 -58.3654L-722.179 -199.151ZM-517.138 -201.449L-318.305 -2.34747L-119.473 -201.449H-517.138ZM-117.18 -199.152L-314.39 -1.67511H-117.18V-199.152ZM-119.473 1.57324H-517.138L-318.305 200.675L-119.473 1.57324ZM-314.39 201.347H-117.18V3.86981L-314.39 201.347ZM-117.18 -204.697V-403.799L-316.012 -204.697H-117.18ZM-113.936 -407.72C-113.936 -296.491 -23.8888 -206.322 87.1892 -206.322C198.267 -206.322 288.315 -296.491 288.315 -407.72C288.315 -518.948 198.267 -609.118 87.1892 -609.118C-23.8888 -609.118 -113.936 -518.948 -113.936 -407.72ZM-117.852 -407.72L-318.305 -206.994L-518.76 -407.72L-318.305 -608.445L-117.852 -407.72ZM-924.92 -609.118C-924.049 -498.636 -834.338 -409.344 -723.801 -409.344C-613.263 -409.344 -523.553 -498.636 -522.682 -609.118H-924.92ZM-1333.66 201.347C-1333.66 312.576 -1423.71 402.745 -1534.79 402.745C-1645.87 402.745 -1735.92 312.576 -1735.92 201.347C-1735.92 90.1186 -1645.87 -0.0509644 -1534.79 -0.0509644C-1423.71 -0.0509644 -1333.66 90.1186 -1333.66 201.347ZM-1333.67 605.768C-1334.54 495.286 -1424.25 405.994 -1534.79 405.994C-1645.33 405.994 -1735.04 495.286 -1735.91 605.768H-1333.67ZM-113.93 607.392C-113.059 496.91 -23.3486 407.618 87.1892 407.618C197.727 407.618 287.437 496.91 288.308 607.392H-113.93ZM492.684 -410.016L691.523 -609.118H293.852L492.684 -410.016ZM492.684 203.644L292.23 404.369L492.684 605.095L693.145 404.369L492.684 203.644ZM-1249.19 -526.15C-1249.19 -527.046 -1248.46 -527.774 -1247.57 -527.774H-1011.03C-1010.13 -527.774 -1009.4 -527.046 -1009.4 -526.15V-289.289C-1009.4 -288.393 -1010.13 -287.665 -1011.03 -287.665H-1247.57C-1248.46 -287.665 -1249.19 -288.393 -1249.19 -289.289V-526.15ZM-1245.94 -524.526V-290.914H-1012.65V-524.526H-1245.94ZM372.792 -323.128C372.792 -324.024 373.519 -324.752 374.414 -324.752H610.959C611.851 -324.752 612.581 -324.024 612.581 -323.128V-86.2672C612.581 -85.3706 611.851 -84.643 610.959 -84.643H374.414C373.519 -84.643 372.792 -85.3706 372.792 -86.2672V-323.128ZM376.036 -321.503V-87.8914H609.337V-321.503H376.036ZM-1249.19 285.939C-1249.19 285.043 -1248.46 284.315 -1247.57 284.315H-1011.03C-1010.13 284.315 -1009.4 285.043 -1009.4 285.939V522.8C-1009.4 523.696 -1010.13 524.424 -1011.03 524.424H-1247.57C-1248 524.424 -1248.41 524.252 -1248.71 523.948C-1249.02 523.643 -1249.19 523.23 -1249.19 522.8V285.939ZM-1245.94 287.563V521.175H-1012.65V287.563H-1245.94ZM-438.197 287.563C-438.197 286.667 -437.471 285.939 -436.575 285.939H-200.036C-199.14 285.939 -198.413 286.667 -198.413 287.563V524.424C-198.413 525.32 -199.14 526.048 -200.036 526.048H-436.575C-437.005 526.048 -437.417 525.876 -437.722 525.572C-438.025 525.267 -438.197 524.854 -438.197 524.424V287.563ZM-434.953 289.188V522.8H-201.657V289.188H-434.953ZM1589.27 287.563C1589.27 286.667 1590 285.939 1590.89 285.939H1827.44C1828.34 285.939 1829.07 286.667 1829.07 287.563V524.424C1829.07 525.32 1828.34 526.048 1827.44 526.048H1590.89C1590.47 526.048 1590.05 525.876 1589.76 525.572C1589.45 525.267 1589.27 524.854 1589.27 524.424V287.563ZM1592.52 289.188V522.8H1825.82V289.188H1592.52ZM697.054 607.392H1099.3C1098.43 496.91 1008.72 407.618 898.179 407.618C787.641 407.618 697.929 496.91 697.054 607.392Z" fill="#424236"/>
</g>
</g>
</g>
</svg>
