<svg width="229" height="52" viewBox="0 0 229 52" fill="none" xmlns="http://www.w3.org/2000/svg">
<mask id="mask0_31_227" style="mask-type:luminance" maskUnits="userSpaceOnUse" x="0" y="0" width="229" height="52">
<path d="M228.404 0.266846H0.764526V51.9352H228.404V0.266846Z" fill="white"/>
</mask>
<g mask="url(#mask0_31_227)">
<path d="M46.4719 16.5332L17.8781 0.63501L14.3048 2.62372V6.59732L10.73 4.60861L7.15512 6.59732V10.5709L3.58189 8.58221L0.00708008 10.5709V42.3676L3.58189 44.3562L7.15512 42.3676V46.3411L10.73 48.3298L14.3048 46.3411V50.3147L17.8781 52.3033L46.4719 36.4051V32.4314L42.8971 30.4427L46.4719 28.4541V24.4805L42.8971 22.4917L46.4719 20.5031V16.5332ZM7.15512 38.3939L3.58189 40.3825V12.5597L7.15512 14.5483V38.3939ZM17.8781 40.3786V36.4051L32.1742 28.458L35.749 30.4466L17.8781 40.3786ZM28.601 26.4692L17.8781 32.4314V20.5068L28.601 26.4692ZM32.1742 24.4805L17.8781 16.5332V12.5597L35.749 22.4956L32.1742 24.4805ZM10.73 8.58221L14.3048 10.5709V14.5446L10.73 12.5558V8.58221ZM10.73 16.5332L14.3048 18.5221V34.4203L10.73 36.409V16.5332ZM10.73 40.3786L14.3048 38.39V42.3635L10.73 44.3522V40.3786ZM42.8971 34.4164L17.8781 48.3257V44.3522L39.3222 32.4278L42.8971 34.4164ZM42.8971 26.4692L39.3222 28.458L35.749 26.4692L39.3222 24.4805L42.8971 26.4692ZM39.3222 20.5068L17.8781 8.58221V4.60861L42.8971 18.5182L39.3222 20.5068Z" fill="#424236"/>
<path d="M61.3178 40.3814H57.1915V12.5625H69.7813C75.5588 12.5625 79.0655 15.9395 79.0655 20.9074C79.0655 25.8754 75.5588 29.2524 69.7813 29.2524H61.3226V40.3814H61.3178ZM74.9392 20.9074C74.9392 18.1269 73.288 15.9395 69.7813 15.9395H61.3226V25.8754H69.7813C73.288 25.8754 74.9392 23.6878 74.9392 20.9074ZM80.595 25.0799C81.007 21.7794 83.8941 19.1175 89.717 19.1175C93.2659 19.1175 96.2763 20.0316 97.8059 22.4945C98.4644 23.5692 98.839 24.9996 98.839 26.667V40.3777H94.8749V37.7925C93.6357 39.3832 91.1622 40.9704 87.6522 40.9704C83.2745 40.9704 79.5618 38.7829 79.5618 34.2128C79.5618 30.6368 82.0791 28.0935 87.4446 27.6537L94.8749 27.0572V26.6594C94.8749 23.879 93.6357 22.0891 89.717 22.0891C86.5785 22.0891 84.8868 23.2824 84.6808 25.0683H80.595V25.0799ZM94.8717 31.44V29.849L87.8534 30.4455C84.963 30.6826 83.5211 32.0366 83.5211 34.2204C83.5211 37.0044 85.5859 37.9952 88.061 37.9952C91.777 37.9988 94.8717 35.6124 94.8717 31.44ZM111.049 22.8962C108.162 22.8962 106.305 24.4871 106.305 28.063V40.3853H102.341V19.7142H106.305V22.1006C107.337 20.3108 108.985 19.3165 112.083 19.3165H113.198V22.8923H111.049V22.8962ZM114.394 25.0799C114.807 21.7794 117.695 19.1175 123.516 19.1175C127.066 19.1175 130.077 20.0316 131.605 22.4945C132.265 23.5692 132.638 24.9996 132.638 26.667V40.3777H128.674V37.7925C127.436 39.3832 124.961 40.9704 121.451 40.9704C117.075 40.9704 113.361 38.7829 113.361 34.2128C113.361 30.6368 115.88 28.0935 121.245 27.6537L128.674 27.0572V26.6594C128.674 23.879 127.436 22.0891 123.516 22.0891C120.379 22.0891 118.687 23.2824 118.48 25.0683H114.394V25.0799ZM128.674 31.44V29.849L121.657 30.4455C118.767 30.6826 117.325 32.0366 117.325 34.2204C117.325 37.0044 119.39 37.9952 121.863 37.9952C125.577 37.9988 128.674 35.6124 128.674 31.44ZM152.116 37.601C150.879 39.59 148.403 40.978 145.1 40.978C138.662 40.978 135.155 36.0103 135.155 30.0479C135.155 24.0856 138.662 19.1175 145.1 19.1175C148.4 19.1175 150.879 20.5096 152.116 22.4945V12.5625H156.075V40.3853H152.113V37.601H152.116ZM145.719 22.2994C141.387 22.2994 139.114 25.6764 139.114 30.0479C139.114 34.4191 141.387 37.8001 145.719 37.8001C150.051 37.8001 152.324 34.224 152.324 30.0479C152.324 25.8754 150.051 22.2994 145.719 22.2994ZM171.35 37.2034V40.3814H158.638V37.2034H163.014V22.8962H158.638V19.718H166.974V37.2071H171.35V37.2034ZM166.974 16.5361H163.009V12.5625H166.974V16.5361ZM188.02 37.2034C187.195 38.3967 184.927 40.1826 181.21 40.1826C175.186 40.1826 171.267 35.4136 171.267 29.6502C171.267 23.8866 175.186 19.1175 181.21 19.1175C184.922 19.1175 187.195 20.9074 188.02 22.0968V19.7103H191.984V38.1901C191.984 44.7492 188.064 48.1262 181.829 48.1262C177.041 48.1262 173.534 45.7396 172.707 42.1636H176.834C177.207 43.5939 178.733 45.143 181.826 45.143C186.364 45.143 188.017 42.3628 188.017 38.1863V37.2034H188.02ZM181.627 22.2994C177.708 22.2994 175.229 25.6764 175.229 29.6539C175.229 33.6274 177.703 37.0083 181.627 37.0083C185.753 37.0083 188.231 33.6313 188.231 29.6539C188.228 25.6764 185.753 22.2994 181.627 22.2994ZM199.577 22.1006C200.816 19.913 203.29 19.1214 205.768 19.1214C208.655 19.1214 211.34 20.3145 212.579 22.6972C213.818 20.5096 216.085 19.1214 219.803 19.1214C224.341 19.1214 227.645 21.7068 227.645 26.8697V40.3814H223.683V27.4663C223.683 24.0893 222.238 22.2994 218.977 22.2994C216.291 22.2994 213.612 23.8905 213.612 28.063V40.3853H209.648V27.4702C209.648 24.0932 208.203 22.3033 204.942 22.3033C202.258 22.3033 199.577 23.8942 199.577 28.0667V40.3892H195.614V19.7142H199.577V22.1006Z" fill="#424236"/>
</g>
</svg>
