<svg width="220" height="28" viewBox="0 0 220 28" fill="none" xmlns="http://www.w3.org/2000/svg">
<mask id="mask0_31_233" style="mask-type:luminance" maskUnits="userSpaceOnUse" x="0" y="0" width="220" height="28">
<path d="M219.034 0.625732H0.5354V27.5544H219.034V0.625732Z" fill="white"/>
</mask>
<g mask="url(#mask0_31_233)">
<path d="M20.7228 7.99332C20.7228 7.05097 20.5313 6.16482 20.1469 5.3347C19.7641 4.50459 19.1884 3.79791 18.4212 3.21466C17.5583 2.56402 16.5883 2.10421 15.5081 1.83492C14.4538 1.56563 13.3752 1.43115 12.2722 1.43115H-0.60144V3.01278H2.77874V22.9349H-0.60144V24.5166C1.3644 24.4493 3.34325 24.4157 5.33179 24.4157C7.29763 24.4157 9.27638 24.4493 11.2649 24.5166V22.9349H7.88475V14.3872H12.2722C13.3752 14.3872 14.4538 14.2639 15.5081 14.0171C16.5883 13.7478 17.5583 13.288 18.4212 12.6373C19.164 12.0765 19.7285 11.3922 20.1113 10.5845C20.5184 9.75442 20.7228 8.89068 20.7228 7.99332ZM15.221 7.99332C15.221 8.32985 15.2097 8.67759 15.1853 9.03653C15.1853 9.39548 15.161 9.74321 15.114 10.0797C15.0896 10.4163 15.0296 10.7304 14.9339 11.0219C14.8609 11.3136 14.7425 11.5493 14.5738 11.7288C14.1424 12.2448 13.5909 12.5813 12.9194 12.7384C12.2479 12.8953 11.565 12.9739 10.8708 12.9739H7.70635V3.01278H10.8708C11.565 3.01278 12.2479 3.09123 12.9194 3.24828C13.5909 3.40534 14.1424 3.73067 14.5738 4.22425C14.7425 4.40372 14.8609 4.63923 14.9339 4.93093C15.0296 5.22264 15.0896 5.54796 15.114 5.9069C15.161 6.24343 15.1853 6.59117 15.1853 6.95011C15.2097 7.30906 15.221 7.65679 15.221 7.99332Z" fill="#424236"/>
<path d="M47.6783 13.1046C47.6783 11.4894 47.4383 9.93018 46.9582 8.427C46.504 6.90141 45.7012 5.54408 44.5496 4.35502C43.471 3.23336 42.2009 2.40325 40.7379 1.86483C39.2992 1.32625 37.7892 1.05713 36.2077 1.05713C34.6247 1.05713 33.1032 1.32625 31.6402 1.86483C30.2015 2.40325 28.9428 3.23336 27.8642 4.35502C26.7142 5.54408 25.8984 6.90141 25.4199 8.427C24.9642 9.93018 24.7355 11.4894 24.7355 13.1046C24.7355 14.6751 24.9755 16.2119 25.4556 17.715C25.9341 19.1958 26.7385 20.5193 27.8642 21.686C28.9428 22.763 30.2015 23.5705 31.6402 24.1089C33.1032 24.6249 34.6247 24.883 36.2077 24.883C37.7892 24.883 39.2992 24.6249 40.7379 24.1089C42.2009 23.5705 43.471 22.763 44.5496 21.686C45.6769 20.5193 46.4797 19.1958 46.9582 17.715C47.4383 16.2119 47.6783 14.6751 47.6783 13.1046ZM42.1766 12.499C42.1766 13.8899 42.1166 15.2697 41.9965 16.6382C41.8765 18.0067 41.4807 19.3079 40.8092 20.5417C40.3308 21.3943 39.695 22.1011 38.9034 22.662C38.1135 23.2004 37.2134 23.4697 36.2077 23.4697C35.2005 23.4697 34.3019 23.2004 33.5103 22.662C32.7188 22.1011 32.083 21.3943 31.6045 20.5417C30.933 19.3079 30.5373 18.0067 30.4173 16.6382C30.2972 15.2697 30.2372 13.8899 30.2372 12.499C30.2372 11.2201 30.2972 9.95259 30.4173 8.69629C30.5373 7.43983 30.933 6.23956 31.6045 5.09532C32.083 4.3102 32.7188 3.67076 33.5103 3.17717C34.3246 2.66117 35.2248 2.40325 36.2077 2.40325C37.1907 2.40325 38.0762 2.66117 38.8677 3.17717C39.6836 3.67076 40.3308 4.3102 40.8092 5.09532C41.4807 6.23956 41.8765 7.43983 41.9965 8.69629C42.1166 9.95259 42.1766 11.2201 42.1766 12.499Z" fill="#424236"/>
<path d="M69.7193 15.296H68.0292C67.9092 16.328 67.7291 17.3598 67.4891 18.3918C67.2733 19.4014 66.8176 20.2989 66.1234 21.084C65.5962 21.6674 64.9718 22.1272 64.2532 22.4638C63.5574 22.7779 62.8032 22.9349 61.9874 22.9349H59.3987V3.01278H63.6418V1.43115C61.3645 1.49839 59.0986 1.53201 56.8457 1.53201C54.8555 1.53201 52.8783 1.49839 50.9125 1.43115V3.01278H54.2927V22.9349H50.9125V24.5166H68.6407L69.7193 15.296Z" fill="#424236"/>
<path d="M94.8438 3.01278V1.43115C93.6452 1.49839 92.4578 1.53201 91.2835 1.53201H91.2478C89.8091 1.53201 88.3704 1.49839 86.9317 1.43115V3.01278C87.2204 3.01278 87.5075 3.02398 87.7962 3.0464C88.1077 3.06881 88.4191 3.10243 88.7305 3.14742C88.8975 3.19225 89.0549 3.23708 89.1977 3.2819C89.342 3.30448 89.389 3.36051 89.342 3.45017L83.5888 12.8728L77.547 3.01278H80.2443V1.43115C78.2298 1.49839 76.2056 1.53201 74.1667 1.53201H74.1311C72.381 1.53201 70.6309 1.49839 68.8807 1.43115V3.01278H71.9024L79.4171 15.296V22.9349H76.0369V24.5166C77.9784 24.4493 79.9199 24.4157 81.863 24.4157C83.8045 24.4157 85.746 24.4493 87.6875 24.5166V22.9349H84.3074V15.296L91.5349 3.45017C91.6079 3.3381 91.7393 3.2707 91.9307 3.24828C92.1221 3.20346 92.3151 3.15863 92.5065 3.11364C92.8892 3.06881 93.2737 3.0464 93.6565 3.0464C94.0409 3.02398 94.4367 3.01278 94.8438 3.01278Z" fill="#424236"/>
<path d="M119.362 16.6382C119.362 16.3465 119.195 16.2006 118.859 16.2006H118.14C117.829 16.2006 117.672 16.3465 117.672 16.6382C117.672 17.558 117.493 18.4217 117.133 19.2294C116.773 20.0371 116.282 20.7438 115.659 21.3495C115.059 21.9553 114.34 22.4377 113.502 22.7966C112.686 23.1331 111.811 23.3014 110.876 23.3014C109.654 23.3014 108.491 23.0769 107.388 22.6283C106.31 22.1796 105.422 21.5065 104.727 20.6092C104.32 20.0932 103.995 19.5323 103.757 18.9265C103.517 18.3208 103.337 17.6926 103.217 17.042C103.097 16.3913 103.012 15.7295 102.965 15.0566C102.941 14.3611 102.93 13.6655 102.93 12.97C102.93 11.5566 103.012 10.1993 103.181 8.89818C103.372 7.57447 103.877 6.38541 104.691 5.33099C105.387 4.43363 106.274 3.76057 107.353 3.31181C108.456 2.86305 109.619 2.63875 110.84 2.63875C111.752 2.63875 112.59 2.82943 113.357 3.21079C114.124 3.59231 114.796 4.10831 115.372 4.75879C115.946 5.40944 116.413 6.17232 116.773 7.04726C117.133 7.89979 117.36 8.79715 117.458 9.7395C117.505 10.031 117.672 10.1769 117.96 10.1769H118.859C119.003 10.1769 119.123 10.1321 119.219 10.0422C119.315 9.93018 119.362 9.81795 119.362 9.70572V1.5283C119.362 1.21419 119.195 1.05713 118.859 1.05713H118.572C118.452 1.05713 118.343 1.09075 118.247 1.15799L115.91 3.14355C115.143 2.4929 114.28 1.98811 113.322 1.62916C112.363 1.24781 111.32 1.05713 110.193 1.05713C108.491 1.05713 106.824 1.31505 105.195 1.83105C103.588 2.34705 102.174 3.17717 100.951 4.3214C99.705 5.46564 98.8064 6.80039 98.255 8.32598C97.7035 9.82915 97.4277 11.3772 97.4277 12.97C97.4277 14.563 97.7035 16.1222 98.255 17.6478C98.8064 19.1508 99.705 20.4745 100.951 21.6187C102.174 22.763 103.588 23.5929 105.195 24.1089C106.824 24.6249 108.491 24.883 110.193 24.883C111.44 24.883 112.614 24.6699 113.717 24.2436C114.843 23.8174 115.814 23.234 116.63 22.4937C117.469 21.7534 118.128 20.8896 118.608 19.9025C119.11 18.8929 119.362 17.8048 119.362 16.6382Z" fill="#424236"/>
<path d="M148.298 24.5166V22.9349H144.918V3.01278H148.298V1.43115C146.308 1.49839 144.33 1.53201 142.365 1.53201C140.374 1.53201 138.397 1.49839 136.431 1.43115V3.01278H139.812V11.7288H131.074V3.01278H134.454V1.43115C132.464 1.49839 130.487 1.53201 128.521 1.53201C126.531 1.53201 124.554 1.49839 122.588 1.43115V3.01278H125.968V22.9349H122.588V24.5166C124.554 24.4493 126.531 24.4157 128.521 24.4157C130.487 24.4157 132.464 24.4493 134.454 24.5166V22.9349H131.074V13.3104H139.812V22.9349H136.431V24.5166C138.397 24.4493 140.374 24.4157 142.365 24.4157C144.33 24.4157 146.308 24.4493 148.298 24.5166Z" fill="#424236"/>
<path d="M175.38 24.5165V22.9348H172.36L164.341 1.59923C164.268 1.41976 164.15 1.2739 163.981 1.16167C163.814 1.04961 163.634 0.993408 163.442 0.993408H162.794C162.578 0.993408 162.386 1.04961 162.219 1.16167C162.051 1.2739 161.931 1.41976 161.859 1.59923L154.02 22.4974C153.972 22.6094 153.853 22.688 153.66 22.7329C153.493 22.7777 153.324 22.8115 153.157 22.8339C152.75 22.9011 152.354 22.9348 151.97 22.9348C151.612 22.9348 151.227 22.9348 150.82 22.9348V24.5165C152.043 24.4491 153.266 24.4155 154.487 24.4155H154.525H155.027C156.297 24.4155 157.569 24.4491 158.839 24.5165V22.9348C158.503 22.9348 158.168 22.9236 157.832 22.9011C157.496 22.8787 157.16 22.8451 156.825 22.8003C156.633 22.7553 156.442 22.7217 156.25 22.6993C156.057 22.6544 155.986 22.587 156.033 22.4974L157.58 18.3918H165.455L167.181 22.9348H164.197V24.5165C166.162 24.4491 168.128 24.4155 170.094 24.4155H170.13C171.904 24.4155 173.654 24.4491 175.38 24.5165ZM164.879 16.81H158.192L161.535 7.89227L164.879 16.81Z" fill="#424236"/>
<path d="M189.908 24.5166V22.9349H186.349V3.01278H189.908V1.43115C187.895 1.49839 185.869 1.53201 183.832 1.53201C181.793 1.53201 179.756 1.49839 177.719 1.43115V3.01278H181.279V22.9349H177.719V24.5166C179.756 24.4493 181.793 24.4157 183.832 24.4157C185.869 24.4157 187.895 24.4493 189.908 24.5166Z" fill="#424236"/>
<path d="M217.9 3.01278V1.43115C216.461 1.49839 215.011 1.53201 213.548 1.53201C212.111 1.53201 210.673 1.49839 209.234 1.43115V3.01278C209.641 3.01278 210.061 3.01278 210.492 3.01278C210.924 3.01278 211.355 3.0464 211.787 3.11364C211.978 3.13621 212.158 3.16984 212.327 3.21466C212.518 3.25949 212.614 3.3381 212.614 3.45017V16.9784L200.712 1.66666C200.616 1.5096 200.448 1.43115 200.207 1.43115H192.19V3.01278H195.57V22.4976C195.57 22.6096 195.475 22.6882 195.282 22.7331C195.115 22.7555 194.935 22.7891 194.743 22.8339C194.334 22.8789 193.916 22.9125 193.484 22.9349C193.053 22.9349 192.622 22.9349 192.19 22.9349V24.5166C193.627 24.4493 195.079 24.4157 196.54 24.4157C197.979 24.4157 199.418 24.4493 200.856 24.5166V22.9349C200.448 22.9349 200.029 22.9349 199.598 22.9349C199.165 22.9125 198.746 22.8789 198.339 22.8339C198.146 22.7891 197.955 22.7555 197.763 22.7331C197.572 22.6882 197.476 22.6096 197.476 22.4976V4.66164L212.758 24.2811C212.878 24.4381 213.046 24.5166 213.261 24.5166H213.873C214.064 24.5166 214.22 24.4605 214.34 24.3483C214.46 24.2362 214.52 24.0904 214.52 23.9109V3.45017C214.52 3.3381 214.604 3.25949 214.771 3.21466C214.964 3.16984 215.156 3.13621 215.347 3.11364C215.778 3.0464 216.199 3.01278 216.606 3.01278C217.037 3.01278 217.469 3.01278 217.9 3.01278Z" fill="#424236"/>
</g>
</svg>
