<svg width="192" height="63" viewBox="0 0 192 63" fill="none" xmlns="http://www.w3.org/2000/svg">
<mask id="mask0_31_246" style="mask-type:luminance" maskUnits="userSpaceOnUse" x="-1" y="0" width="193" height="63">
<path d="M191.267 0H-0.00622559V62.2483H191.267V0Z" fill="white"/>
</mask>
<g mask="url(#mask0_31_246)">
<path fill-rule="evenodd" clip-rule="evenodd" d="M-1.52124 8.67927V16.9906H1.90923H5.3397V8.67927V0.36792H1.90923H-1.52124V8.67927ZM15.8323 25.1142C10.3403 30.6257 10.1457 30.8505 9.48068 32.4898C8.65022 34.5311 8.67772 37.2988 9.5471 39.3935C10.1797 40.9178 10.6469 41.454 16.0026 46.804L21.1005 51.8976L23.4312 49.5666L25.762 47.2355L20.7144 42.1671C15.3603 36.7887 15.4187 36.8583 15.4187 35.8655C15.4187 34.8726 15.3603 34.9421 20.7144 29.564L25.7605 24.4961L23.4589 22.191C22.1921 20.9235 21.1313 19.8862 21.0989 19.8862C21.068 19.8862 18.6983 22.2389 15.8323 25.1142ZM175.652 20.8626C171.215 21.7442 167.774 24.9596 166.624 29.3015C166.383 30.2096 166.349 30.5612 166.346 32.0584C166.344 33.5798 166.376 33.8957 166.629 34.8466C167.28 37.3008 168.814 39.6573 170.668 41.0507C171.591 41.745 174.527 43.4158 174.631 43.3062C174.734 43.1972 177.737 38.0466 177.813 37.8475C177.844 37.7664 177.289 37.3881 176.382 36.8707C173.834 35.4177 173.02 34.3383 172.936 32.3095C172.902 31.4528 172.936 31.152 173.13 30.5668C174.272 27.1347 178.63 26.1773 181.166 28.8016C181.423 29.0689 181.853 29.742 182.166 30.3693L182.714 31.4685H186.233C188.168 31.4685 189.751 31.4487 189.751 31.4247C189.751 31.4005 189.504 30.761 189.202 30.0037C187.897 26.7343 187.099 25.3913 185.607 23.9578C184.5 22.8956 183.787 22.4023 182.429 21.7613C180.849 21.0159 180.017 20.8358 177.957 20.7929C176.984 20.7728 175.948 20.8041 175.652 20.8626ZM143.005 20.9766C136.162 21.496 130.509 26.74 129.439 33.5596C129.217 34.978 129.272 37.5986 129.549 38.8683C130.803 44.5928 134.955 48.9417 140.514 50.3533C145.553 51.6332 150.849 50.2369 154.57 46.6469C156.383 44.8974 157.626 42.954 158.38 40.6862C159.011 38.7872 159.141 37.9688 159.139 35.8655C159.139 33.7454 158.988 32.7899 158.367 30.986C157.592 28.7336 156.395 26.8596 154.648 25.163C151.521 22.1279 147.393 20.6435 143.005 20.9766ZM-1.49531 35.8923L-1.46769 50.826L1.93516 50.8542L5.3397 50.8825V35.9205V20.9586H1.90923H-1.52283L-1.49531 35.8923ZM46.1892 21.1311C44.2461 21.4829 41.9656 22.4272 40.2918 23.5719C39.2277 24.3008 37.6446 25.8347 36.7915 26.9643C35.9481 28.0827 34.8159 30.3326 34.4461 31.6293C33.8801 33.6085 33.8607 33.9814 33.8607 42.7559L33.859 50.8796H37.2846H40.7119L40.7491 42.7559C40.7832 35.5666 40.8075 34.5551 40.9681 33.9628C41.8132 30.8144 44.3029 28.5169 47.4771 27.9543L48.3984 27.7907L50.0836 24.4948L51.7673 21.1987L51.4721 21.1249C51.3082 21.0843 50.2588 21.032 49.138 21.0088C47.615 20.977 46.8705 21.008 46.1892 21.1311ZM67.3642 21.1309C65.3837 21.4844 63.293 22.3362 61.5218 23.5107C61.0077 23.8516 60.0912 24.6307 59.423 25.2983C57.209 27.5052 55.9195 29.9004 55.2367 33.0771C54.9609 34.3592 54.9609 37.3717 55.2367 38.6537C55.879 41.6399 57.1409 44.0739 59.1343 46.1698C61.3386 48.4863 64.3116 50.0731 67.4437 50.6047C68.7737 50.8302 71.0282 50.8355 72.3907 50.6161C77.907 49.728 82.5183 45.7337 84.2295 40.3601C84.695 38.8973 84.8946 37.5506 84.8946 35.8655C84.8946 32.8124 84.0998 30.1487 82.4437 27.6489C81.2516 25.8503 79.9734 24.5796 78.1228 23.3559C76.4116 22.2243 74.4231 21.4438 72.4313 21.1204C71.1856 20.9185 68.5239 20.9242 67.3642 21.1309ZM104.569 21.1087C98.9847 22.1724 94.6329 25.924 92.8828 31.1831C92.1302 33.4438 92.1335 33.3758 92.1318 42.5681V50.826H95.5623H98.9928L99.0479 42.5681L99.1015 34.3105L99.3512 33.5596C100.255 30.8396 102.358 28.8152 105.051 28.0753C106.011 27.8112 108.163 27.8083 109.122 28.0696C111.821 28.8057 113.905 30.8118 114.823 33.5596L115.073 34.3105L115.128 42.5681L115.183 50.826H118.614H122.044V42.5681C122.044 35.0791 122.027 34.2156 121.853 33.2916C120.87 28.0839 117.401 23.8701 112.489 21.9183C110.772 21.236 109.709 21.0447 107.409 21.0034C105.969 20.9774 105.087 21.0103 104.569 21.1087ZM71.5765 27.9929C73.9641 28.4862 76.0629 30.1008 77.1221 32.2585C77.7952 33.6304 77.9736 34.3802 77.9736 35.8655C77.9736 37.3518 77.7952 38.1003 77.1204 39.4765C76.058 41.6402 73.9738 43.2428 71.5765 43.738C68.9084 44.2893 66.2905 43.5014 64.3036 41.5493C62.5453 39.8231 61.7262 37.5236 61.9679 35.0084C62.1447 33.1931 62.9557 31.5167 64.3051 30.1815C66.2726 28.2361 68.91 27.442 71.5765 27.9929ZM145.725 27.977C147.389 28.2955 148.677 28.9903 149.92 30.239C150.898 31.2208 151.383 31.9775 151.813 33.1922C152.429 34.9345 152.429 36.7963 151.813 38.5386C151.376 39.7723 150.895 40.5188 149.866 41.5519C148.421 43.0068 146.723 43.7658 144.663 43.8784C140.869 44.0856 137.5 41.6537 136.448 37.9506C136.107 36.7515 136.109 34.9774 136.449 33.7742C136.855 32.3488 137.456 31.3348 138.556 30.2309C139.297 29.486 139.719 29.1599 140.378 28.8232C142.238 27.8734 143.85 27.6182 145.725 27.977ZM179.72 42.4764C178.84 43.9872 178.106 45.2773 178.092 45.3434C178.076 45.4096 178.76 45.8623 179.61 46.3496C181.41 47.382 181.985 47.9089 182.547 49.0475C182.935 49.8323 182.943 49.8765 182.943 51.0883C182.943 52.2599 182.924 52.3668 182.599 53.0521C181.676 55.0032 179.547 56.1534 177.498 55.8076C175.787 55.519 174.543 54.512 173.698 52.7293L173.226 51.7376H169.696H166.165L166.418 52.4079C167.761 55.9671 168.879 57.914 170.396 59.3324C175.622 64.2222 183.886 63.2291 187.788 57.2423C188.484 56.175 188.936 55.1349 189.295 53.7808C189.524 52.9107 189.566 52.5138 189.569 51.1477C189.576 49.3429 189.444 48.5821 188.855 47.0158C188.268 45.4485 187.595 44.4338 186.267 43.1038C185.07 41.9053 184.912 41.7968 181.811 40.0112L181.321 39.7297L179.72 42.4764Z" fill="#424236"/>
</g>
</svg>
