<svg width="200" height="73" viewBox="0 0 200 73" fill="none" xmlns="http://www.w3.org/2000/svg">
<path d="M22.2755 1.26905C22.37 1.60769 22.5278 2.31876 22.6226 2.89453C22.7487 3.43619 23.0642 4.38439 23.3482 4.99394C23.8846 6.07743 23.8846 6.07743 21.9284 10.4457C20.8556 12.816 19.9721 15.0171 19.9721 15.2878C19.9721 15.6942 19.909 15.6942 19.6882 15.2878C19.4673 14.9154 19.3095 15.1863 18.994 16.236C18.6155 17.5904 18.6469 17.6921 19.499 18.6403C20.7609 20.0624 22.2755 20.0624 22.8118 18.6741C23.3166 17.3197 23.9161 16.8116 25.9669 16.0668C28.2387 15.2201 30.0687 13.3578 30.0687 11.9017C30.0687 11.2922 29.9109 10.5134 29.7215 10.107C29.4376 9.5314 29.4693 9.46368 29.9424 9.56519C30.6364 9.70065 31.867 11.9017 32.1512 13.4593C32.4667 15.3218 30.9521 18.3694 28.8381 20.0285C25.9669 22.3311 25.336 23.0761 24.0423 25.819C23.1904 27.6475 22.7802 29.0357 22.6226 30.6274C22.4964 31.8463 22.3385 32.8621 22.2755 32.8621C22.2124 32.8621 20.9187 31.8124 19.4042 30.4919C17.4796 28.8327 16.1544 27.3426 14.9239 25.4464L13.1886 22.7374H10.3489L0 34.2504L0.883444 37.4673C1.86155 40.9895 1.67223 40.853 4.10169 39.7361C5.30066 39.2284 5.30066 39.1605 4.16481 36.3161C3.81773 35.4356 3.37602 34.8938 3.06051 34.8938C2.27171 34.8938 2.80808 34.4538 4.07015 34.0474C4.70118 33.8441 6.37342 32.4897 8.14031 30.6949C9.81254 29.0696 11.2324 27.749 11.2639 27.8167C11.4217 27.9861 15.5549 36.35 15.5549 36.4855C15.5549 36.553 15.271 36.587 14.9239 36.587C14.5768 36.587 13.6618 36.9254 12.8731 37.3318C11.7372 37.9414 11.4217 38.2799 11.2639 39.1944C11.0115 40.7182 11.4848 42.0387 13.4725 45.2221C14.8924 47.4569 15.3025 48.4379 15.7442 50.7069L16.2806 53.4843L18.0474 53.8903C19.0257 54.0933 21.3289 55.1101 23.2219 56.0911C26.5349 57.8858 26.6295 57.9199 28.0177 57.548C29.5954 57.1078 29.5638 57.2426 29.0904 54.2964L28.7434 52.1638L26.5033 51.4183C24.6734 50.8434 24.1054 50.7751 23.3482 51.0805C22.4331 51.4524 22.2755 51.3501 20.2877 49.6577C18.2053 47.8289 17.7636 47.0509 15.9651 42.0728C15.6496 41.2266 17.448 41.6992 23.2851 44.0364C26.5349 45.3569 29.2482 46.3736 29.2798 46.3395C29.2798 46.2713 29.5007 45.0857 29.6902 43.6986C29.9109 42.2076 30.4788 40.2781 31.0784 39.025C32.2456 36.5191 34.8644 33.5394 36.7891 32.5575C40.7331 30.5255 47.8954 30.7628 52.8804 33.133L54.237 33.7765L56.004 32.1512L54.5527 30.7964L53.1013 29.4084L53.7954 28.3923C54.4265 27.4104 54.4265 27.2411 54.0479 25.1755C53.8272 23.9903 53.7324 22.9068 53.8585 22.8052C53.9532 22.7037 54.5527 23.0084 55.2154 23.4825C56.4142 24.3967 57.2345 24.3967 56.4773 23.4487C56.2564 23.11 54.1423 20.4688 51.8078 17.5227C49.4728 14.6107 47.4538 11.7663 47.2643 11.2584C47.1065 10.7503 46.6963 9.97155 46.4123 9.5314C45.6868 8.44775 45.8761 8.3123 47.1696 8.98958C48.6842 9.8361 47.9267 9.15899 45.0557 7.12714C43.6674 6.14516 42.1213 4.92622 41.585 4.41833C40.954 3.77484 40.0389 3.33468 38.7454 3.06377C35.8427 2.45422 35.5903 2.3527 36.0949 2.01406C36.3474 1.84482 37.0416 1.70936 37.641 1.67541C38.5246 1.67541 38.3668 1.5739 36.7891 1.20132C35.4325 0.89662 34.4859 0.828897 33.7917 1.06586C31.9303 1.60769 26.8504 2.45422 26.1562 2.28498C25.8093 2.21725 24.7365 1.81088 23.8214 1.40451C22.2755 0.761175 22.1493 0.727384 22.2755 1.26905Z" fill="#424236"/>
<path d="M53.5253 2.52817C53.5253 2.58436 53.8518 2.71528 54.2512 2.82751C54.6502 2.93974 58.3913 4.17492 58.3913 4.13756C58.3913 4.08136 54.6502 2.75263 54.2512 2.6404C53.8518 2.52817 53.5253 2.49081 53.5253 2.52817Z" fill="#424236"/>
<path d="M12.4019 2.90152L11.3539 3.25185L13.8991 4.47827C15.3065 5.14418 17.2828 6.05519 18.3308 6.51077L20.2173 7.38669L20.6664 6.16028C20.906 5.49452 21.0857 4.79369 21.0857 4.61844C21.0857 4.30319 14.9172 2.44593 13.959 2.5161C13.6895 2.5161 12.9708 2.69135 12.4019 2.90152Z" fill="#424236"/>
<path d="M55.7569 3.00256C59.6481 6.08525 60.889 7.19636 62.9018 9.34693C66.2564 12.8954 68.9398 16.9458 71.2542 21.8922C73.3341 26.3729 73.6359 26.3729 71.657 21.8922C68.3025 14.3293 61.9291 6.62286 55.9246 2.96684C54.9181 2.35744 54.9181 2.35744 55.7569 3.00256Z" fill="#424236"/>
<path d="M87.455 9.33146C86.3065 9.61163 85.9649 9.85671 85.9649 10.3471C85.9649 10.9072 86.2132 11.0123 87.3619 11.0123H88.7586V18.5059C88.7586 25.8945 88.7586 26.0345 88.0756 26.5598C87.7032 26.8749 87.0515 27.1201 86.6789 27.1201C86.1513 27.1201 85.9649 27.3301 85.9649 27.8554C85.9649 28.5557 86.0582 28.5557 92.887 28.4506L99.8401 28.3457L101.33 27.2952C103.41 25.8594 104.776 23.7584 105.21 21.2722C106.079 16.6149 104.31 12.1328 100.74 10.0318C99.2192 9.12145 98.9399 9.08637 94.0356 9.01636C91.2109 8.98128 88.262 9.12145 87.455 9.33146ZM97.3569 10.6972C98.5364 11.1874 99.8401 12.6581 100.647 14.339C101.672 16.4749 101.609 21.4123 100.554 23.7935C99.3123 26.5948 96.6429 27.7854 94.1908 26.5948C93.5387 26.3147 92.98 25.7194 92.7939 25.1941C92.4523 24.1785 92.3594 10.9072 92.7007 10.557C93.0111 10.172 96.3944 10.277 97.3569 10.6972Z" fill="#424236"/>
<path d="M121.709 9.50262C121.77 9.74852 122.287 10.1698 122.865 10.3805L123.929 10.7669V26.8857L122.804 27.2018C122.135 27.3774 121.648 27.7285 121.648 28.0095C121.648 28.3957 122.5 28.5011 126.241 28.5011C129.616 28.5011 130.803 28.3957 130.711 28.0797C130.559 27.6233 130.103 27.3072 128.795 26.8506L127.883 26.5697L127.701 19.0195H129.677C132.232 19.0195 133.053 19.4057 133.479 20.7754C134.087 22.8823 134.574 21.8288 134.665 18.2118C134.756 14.981 134.726 14.8054 134.117 14.8054C133.661 14.8054 133.509 15.0511 133.509 15.6482C133.509 17.0528 132.445 17.6147 129.921 17.6147H127.701L127.883 10.7669H133.965L134.574 12.0662C134.908 12.8389 135.425 13.4006 135.729 13.4006C136.155 13.4006 136.246 13.0495 136.246 11.1882V9.01099H128.947C122.926 9.01099 121.648 9.08114 121.709 9.50262Z" fill="#424236"/>
<path d="M139.672 9.77874C139.011 10.9009 140.245 12.2298 141.919 12.2593C143.769 12.2593 145.134 10.3695 143.857 9.48346C143.461 9.21775 142.447 9.01099 141.61 9.01099C140.377 9.01099 140.024 9.15863 139.672 9.77874Z" fill="#424236"/>
<path d="M141.493 16.1612C141.031 16.5382 140.107 16.9154 139.432 17.0524C137.939 17.3266 137.868 18.0464 139.29 18.3208L140.356 18.5264V22.8111C140.356 27.3015 140.285 27.473 138.543 27.473C138.188 27.473 137.868 27.7129 137.868 27.9871C137.868 28.3985 138.579 28.5013 141.99 28.5013C145.117 28.5013 146.077 28.3985 145.97 28.0556C145.864 27.85 145.331 27.5758 144.762 27.473L143.731 27.3015L143.838 22.2284C143.909 19.4176 143.874 16.7781 143.767 16.2983C143.483 15.3042 142.63 15.2356 141.493 16.1612Z" fill="#424236"/>
<path d="M163.496 16.1523C163.119 16.5296 162.281 17.0098 161.675 17.2156C160.403 17.6959 160.23 18.2104 161.183 18.725C162.022 19.171 162.31 20.7146 162.224 24.1449C162.137 26.8204 162.108 26.9576 161.357 27.4036C159.912 28.1925 160.49 28.5012 163.437 28.5012C166.386 28.5012 167.02 28.1582 165.604 27.4036C164.853 27.0262 164.853 26.9919 164.941 23.0471L165.027 19.068L166.386 18.279C167.482 17.6274 167.859 17.5587 168.35 17.8674C169.275 18.4505 169.507 19.6168 169.507 23.5616V27.1634L168.639 27.5064C167.049 28.1925 167.744 28.5012 170.661 28.5012C172.974 28.5012 173.552 28.3983 173.552 28.021C173.552 27.7466 173.263 27.4722 172.916 27.4036C172.28 27.3006 172.251 27.1634 172.107 22.6698C172.021 20.1314 171.847 17.8331 171.732 17.5929C170.835 15.9808 167.482 15.7063 165.807 17.1471L164.882 17.9017V16.7011C164.882 15.2947 164.506 15.1575 163.496 16.1523Z" fill="#424236"/>
<path d="M113.111 15.7269C110.377 16.5231 108.673 18.9811 108.673 22.1314C108.673 25.9048 110.988 28.5013 114.366 28.5013C116.296 28.5013 117.421 28.1205 118.901 26.8742C119.737 26.2164 119.866 25.9048 119.608 25.5587C119.319 25.1779 119.029 25.2125 117.904 25.7665C116.199 26.5626 115.523 26.5972 114.173 25.8011C112.854 25.0393 111.889 23.2738 111.889 21.6467V20.4697L115.974 20.7466L120.026 20.9889L119.801 19.8119C119.255 16.8 116.038 14.8268 113.111 15.7269ZM116.167 17.4926C116.842 18.3579 116.874 19.3618 116.199 19.6388C115.91 19.7427 114.816 19.8465 113.754 19.8465H111.825L112.018 18.8772C112.146 18.3579 112.597 17.5964 113.079 17.1463C114.044 16.2116 115.266 16.3501 116.167 17.4926Z" fill="#424236"/>
<path d="M180.421 15.6619C178.106 16.3213 176.522 17.7442 175.665 19.9309C173.891 24.5816 177.125 28.9201 182.07 28.4689C183.877 28.2952 184.987 27.6011 186.096 26.0047C186.571 25.3105 186.635 24.9634 186.382 24.6857C186.096 24.3733 185.747 24.5122 185.05 25.1716C183.147 26.9416 181.214 26.8375 179.66 24.8939C177.06 21.6662 178.646 16.3559 182.07 16.703C182.291 16.703 182.831 17.3624 183.274 18.1607C184.004 19.3756 184.226 19.549 185.113 19.4449C185.778 19.3756 186.159 19.1326 186.223 18.716C186.413 17.5708 186.001 16.5295 185.209 16.1131C184.098 15.5924 181.563 15.3148 180.421 15.6619Z" fill="#424236"/>
<path d="M192.595 15.6504C189.892 16.484 188.361 18.5679 188.166 21.6938C187.937 25.7228 190.25 28.4665 193.867 28.5012C195.822 28.5012 196.962 28.1192 198.461 26.8688C199.275 26.2091 199.439 25.8964 199.178 25.549C198.884 25.167 198.558 25.2017 197.32 25.7921C195.496 26.6604 194.062 26.4174 192.922 25.0975C191.781 23.8124 191.358 22.84 191.358 21.555V20.4435L199.504 20.9297V20.0961C199.504 18.9499 198.266 17.0398 197.059 16.3103C195.886 15.6157 193.802 15.3032 192.595 15.6504ZM195.431 17.2134C196.344 18.1859 196.506 19.2973 195.724 19.6098C194.91 19.9573 191.749 19.853 191.522 19.471C191.261 19.0195 192.205 17.1439 192.889 16.7271C193.835 16.1367 194.584 16.2756 195.431 17.2134Z" fill="#424236"/>
<path d="M150.477 16.2598C148.869 17.1958 147.6 18.852 147.6 20.0403C147.6 21.0482 147.755 21.0843 149.271 20.3643C150.044 19.9681 150.446 19.5361 150.57 18.8161C150.88 17.3399 151.591 16.5838 152.736 16.5838C153.664 16.5838 153.788 16.7279 154.097 18.0599C154.685 20.6162 154.778 20.5082 150.601 22.7044C148.992 23.5685 148.374 24.1087 148.002 25.0088C147.6 26.0528 147.569 26.3408 147.941 27.2409C148.343 28.213 148.528 28.2851 150.416 28.3931C152.117 28.465 152.581 28.357 153.509 27.637L154.623 26.773L155.273 27.601C156.17 28.8251 157.933 28.7891 158.614 27.5649C158.893 27.0609 159.016 26.4129 158.923 26.0889C158.738 25.5128 158.676 25.5128 158.15 26.0889C157.872 26.4129 157.5 26.5568 157.408 26.4129C157.284 26.3049 157.191 24.4686 157.191 22.3445C157.191 17.9519 156.882 16.5119 155.768 15.8997C154.499 15.2517 151.932 15.4316 150.477 16.2598ZM154.314 24.0365C154.128 25.9448 153.385 27.0249 152.21 27.0249C151.529 27.0249 151.282 26.8089 151.127 26.1247C151.034 25.6208 151.003 24.9727 151.096 24.6846C151.375 23.9285 153.819 21.9483 154.159 22.2004C154.345 22.3445 154.407 23.1364 154.314 24.0365Z" fill="#424236"/>
<path d="M72.2981 22.0985C72.2981 22.301 73.9266 27.2913 74.118 27.8315C74.8526 29.8234 75.6827 35.4954 75.6827 38.4325C75.6827 43.4292 74.3415 48.8312 72.1384 52.8153C71.5314 53.8954 69.7432 56.1579 68.1788 57.8454C65.8157 60.3434 64.7618 61.1879 62.5904 62.3362C58.5669 64.4282 56.0444 65.1038 51.4779 65.3069C44.6765 65.6447 38.6093 64.0579 32.7973 60.4782L30.8176 59.2633L31.7436 60.3093C33.0211 61.7288 36.6931 64.3957 39.2797 65.7454C50.8074 71.8896 63.2929 69.4599 70.414 59.6693C76.0021 51.9707 77.7266 40.3562 74.8844 29.4521C74.1819 26.7175 72.2981 21.2208 72.2981 22.0985Z" fill="#424236"/>
<path d="M95.3886 45.1216C87.7889 47.886 86.9889 59.8984 94.158 63.4488C95.5426 64.131 96.2812 64.2333 99.1735 64.2333C103.512 64.2333 104.681 63.7558 104.989 61.8441C105.112 61.0938 105.297 60.1729 105.389 59.7278C105.666 58.3976 104.466 58.841 102.835 60.6504C101.05 62.6286 99.3583 63.3124 97.5118 62.7309C95.8198 62.2193 94.8965 61.2984 94.0966 59.2844C93.512 57.7837 93.4502 57.0317 93.5427 54.2349C93.6659 50.3433 94.4964 48.0224 96.2196 46.8968C98.2196 45.6007 101.389 46.4534 103.112 48.7403C103.943 49.7976 105.174 50.1387 105.174 49.2519C105.174 48.979 104.989 48.0224 104.804 47.1697C104.312 45.1914 103.881 44.9852 99.7889 44.7805C97.6349 44.6782 96.3119 44.7805 95.3886 45.1216Z" fill="#424236"/>
<path d="M149.846 45.2009C148.596 46.432 149.37 49.6154 150.888 49.6154C151.514 49.6154 152.466 48.0026 152.466 46.8981C152.466 45.1164 150.918 44.0964 149.846 45.2009Z" fill="#424236"/>
<path d="M191.515 45.037C191.218 45.2433 190.416 45.6217 189.762 45.828C188.364 46.3087 188.067 46.8593 189.077 47.1696C189.733 47.3417 189.822 47.5821 190 49.9907C190.09 51.4688 190.179 54.7382 190.179 57.3531C190.179 62.237 190 63.0296 188.87 63.27C188.542 63.3041 188.245 63.5802 188.156 63.7865C188.067 64.1292 188.841 64.2332 191.337 64.2332C194.013 64.2332 194.638 64.1292 194.638 63.7508C194.638 63.4422 194.281 63.2002 193.835 63.132L193.003 63.0297L192.853 53.9472C192.764 48.339 192.586 44.8291 192.407 44.7609C192.26 44.6927 191.843 44.8291 191.515 45.037Z" fill="#424236"/>
<path d="M162.099 50.9424C161.508 51.6717 160.537 52.5016 159.981 52.768C158.696 53.3982 158.592 54.2606 159.807 54.2606H160.675V58.5062C160.675 62.5196 160.71 62.8184 161.474 63.4827C162.586 64.4783 165.083 64.4783 166.368 63.5152C167.132 62.9516 167.202 62.7194 166.89 62.3539C166.611 62.0226 166.368 61.956 166.091 62.2224C165.57 62.7194 164.251 62.6203 164.008 62.0226C163.904 61.7237 163.8 59.8657 163.8 57.876V54.2606H165.362C166.681 54.2606 166.924 54.1599 166.924 53.6288C166.924 53.0993 166.647 52.9662 165.466 52.8671C164.112 52.768 163.974 52.7014 164.078 51.9381C164.182 50.9099 163.869 49.6155 163.487 49.6155C163.348 49.6155 162.723 50.2132 162.099 50.9424Z" fill="#424236"/>
<path d="M130.537 52.0628C129.755 52.516 128.914 52.9009 128.741 52.9009C128.103 52.9009 128.335 53.8105 129.059 54.2311C129.726 54.5803 129.755 54.7557 129.958 59.9661C130.044 62.9042 130.103 66.5066 130.044 67.9408C129.958 70.5281 129.928 70.5638 129.03 71.0885C127.379 72.0321 127.929 72.3115 131.406 72.3472C134.043 72.3829 134.738 72.2774 134.738 71.9282C134.738 71.6472 134.477 71.4377 134.188 71.4377C133.029 71.4377 132.71 70.5281 132.71 67.2408V64.1288L133.782 64.6876C137.259 66.4368 141.112 63.0796 141.112 58.3224C141.112 53.6009 137.867 51.0477 134.014 52.7271C133.376 53.0065 132.826 53.2517 132.797 53.2517C132.739 53.2517 132.71 52.7612 132.71 52.2025C132.71 50.9422 132.449 50.9422 130.537 52.0628ZM136.187 54.7557C137.983 55.839 138.823 59.5812 137.78 61.9947C137.23 63.2892 136.534 63.7439 135.057 63.7439C133.058 63.7439 132.71 63.0098 132.71 58.6716C132.71 55.1748 132.739 54.9652 133.376 54.6501C134.303 54.1954 135.347 54.2311 136.187 54.7557Z" fill="#424236"/>
<path d="M150.402 51.9771C149.93 52.3198 149.075 52.7291 148.573 52.8315C147.394 53.1043 147.305 53.8888 148.426 54.0593C149.222 54.1617 149.222 54.1974 149.369 57.2346C149.458 58.9075 149.458 60.8874 149.399 61.6053C149.311 62.7308 149.193 62.9355 148.455 63.106C147.984 63.2083 147.6 63.5169 147.6 63.7557C147.6 64.1309 148.279 64.2332 150.844 64.2332C153.469 64.2332 154.088 64.1309 154.088 63.7557C154.088 63.4487 153.734 63.2083 153.292 63.1401L152.466 63.0378L152.378 57.1323C152.289 50.6128 152.289 50.5787 150.402 51.9771Z" fill="#424236"/>
<path d="M114.775 53.5262C113.177 54.348 111.917 55.8 111.917 56.8428C111.917 57.7263 111.886 57.7263 113.422 57.0945C114.345 56.7161 114.683 56.3685 114.836 55.7058C115.174 54.1905 117.018 53.1169 117.879 53.9696C118.831 54.9798 118.708 57.9163 117.694 57.9163C117.541 57.9163 116.404 58.3906 115.144 58.9899C112.654 60.1593 111.732 61.3271 112.101 62.8116C112.347 63.8852 113.085 64.2328 115.052 64.2328C116.588 64.2328 117.848 63.7276 118.432 62.8425C118.555 62.6541 118.954 62.875 119.415 63.3801C119.907 63.9161 120.491 64.2328 121.044 64.2328C122.089 64.2328 122.458 63.9794 122.949 63.065C123.41 62.1489 123.38 61.7056 122.827 61.7056C122.581 61.7056 122.366 61.8322 122.366 62.0223C122.366 62.1798 122.15 62.3374 121.905 62.3374C121.536 62.3374 121.444 61.738 121.444 58.8957C121.444 53.6837 120.983 52.8944 117.909 52.8635C116.649 52.8635 115.666 53.0844 114.775 53.5262ZM118.463 60.9795C117.971 63.0959 115.635 63.6952 115.359 61.738C115.236 60.9162 115.943 60.0002 117.295 59.1475C118.186 58.5482 118.217 58.5482 118.493 59.1475C118.647 59.4951 118.616 60.2844 118.463 60.9795Z" fill="#424236"/>
<path d="M175.026 53.3686C173.385 54.0946 171.93 55.6734 171.93 56.7161C171.93 57.7588 171.899 57.7263 173.416 57.127C174.376 56.7161 174.655 56.401 174.903 55.4849C175.274 53.9696 176.729 53.242 177.784 54.0004C178.371 54.4114 178.465 54.7589 178.371 56.0843L178.278 57.6646L176.11 58.5481C172.488 60.0002 171.187 61.738 172.425 63.5376C172.828 64.1386 173.169 64.2328 174.872 64.2328C176.544 64.2328 176.977 64.1061 177.784 63.4109L178.742 62.5907L179.393 63.4109C179.827 63.9794 180.322 64.2328 181.003 64.2328C182.181 64.2328 182.552 64.0119 183.047 63.0016C183.357 62.4332 183.357 62.1798 183.078 61.8956C182.8 61.6422 182.645 61.6422 182.552 61.9281C182.46 62.149 182.242 62.3374 181.994 62.3374C181.715 62.3374 181.561 61.3271 181.469 58.3581C181.344 54.4747 181.313 54.348 180.478 53.622C179.796 53.0211 179.3 52.8635 177.876 52.8635C176.916 52.8944 175.615 53.1169 175.026 53.3686ZM177.784 62.4332C177.411 62.7483 176.729 62.9692 176.296 62.9058C175.615 62.8116 175.492 62.6216 175.398 61.6422C175.305 60.5378 175.398 60.3802 176.793 59.495L178.278 58.5173L178.371 60.1902C178.465 61.6114 178.371 61.9589 177.784 62.4332Z" fill="#424236"/>
</svg>
