<svg width="206" height="51" viewBox="0 0 206 51" fill="none" xmlns="http://www.w3.org/2000/svg">
<mask id="mask0_31_273" style="mask-type:luminance" maskUnits="userSpaceOnUse" x="0" y="0" width="206" height="51">
<path d="M205.15 0.722656H0.375549V50.5213H205.15V0.722656Z" fill="white"/>
</mask>
<g mask="url(#mask0_31_273)">
<path d="M106.966 51.1623C97.4672 51.1623 96.8768 45.8074 98.6318 39.7216H106.304C105.558 43.0804 105.082 45.9032 109.3 45.9032C111.892 45.9032 113.517 44.2985 114.047 41.911C115.45 35.5816 100.095 35.1934 102.418 24.7239C103.637 19.223 107.353 14.8411 116.699 14.8411C124.168 14.8411 127.162 18.0534 125.023 25.4077H117.555C118.139 22.777 118.277 20.0992 115.179 20.0992C112.69 20.0992 110.925 21.415 110.385 23.8472C108.904 30.5174 124.475 29.9327 122.022 40.9868C120.001 50.092 112.806 51.1623 106.966 51.1623ZM151.81 50.5776L159.612 15.4258H179.625L178.425 20.8306H166.082L164.16 29.4974H175.536L174.338 34.901H162.958L160.681 45.1756H173.431L172.232 50.5776H151.81ZM144.347 29.4974L147.471 15.4252H155.142L147.34 50.5808H139.673L143.152 34.901H134.362L130.883 50.5808H123.211L131.011 15.4252H138.683L135.561 29.4974H144.347ZM87.1304 25.4079L74.2713 50.5808H66.5377L84.4979 15.4258H94.6061L96.7633 50.5808H88.681L87.1304 25.4079ZM195.462 15.4229C205.519 15.4229 205.974 21.8506 203.543 32.8058C202.344 38.2143 200.463 50.5776 187.356 50.5776H174.862C177.462 38.8591 180.062 27.1402 182.662 15.4229H195.462ZM195.728 33.0024C197.164 26.5263 198.431 20.8303 193.096 20.8303H189.132C187.333 28.9452 185.533 37.0579 183.731 45.1756H187.438C192.113 45.1756 193.772 41.8135 195.728 33.0024ZM64.713 50.5808H57.0443L60.5218 34.9026H51.7323L48.2548 50.5808H40.5812L48.3845 15.4261H56.0532L52.9309 29.4974H61.7204L64.8411 15.4261H72.5099L64.713 50.5808ZM25.32 29.4974L27.242 20.8304H18.4574L16.5321 29.4974H25.32ZM42.5811 20.8304H34.914L32.9919 29.4974H40.659L39.4604 34.9026H31.7933L28.3109 50.5808H20.6438L24.1213 34.9026H15.3334L11.8543 50.5808H4.18557L7.66309 34.9026H-0.00238037L1.19626 29.4974H8.86173L10.7838 20.8304H3.11669L4.31694 15.4261H11.984L15.1047 1.36353H22.7735L19.6544 15.4261H28.4439L31.563 1.36353H39.2333L36.1142 15.4261H43.7813L42.5811 20.8304Z" fill="#424236"/>
</g>
</svg>
