<svg width="229" height="68" viewBox="0 0 229 68" fill="none" xmlns="http://www.w3.org/2000/svg">
<mask id="mask0_31_278" style="mask-type:luminance" maskUnits="userSpaceOnUse" x="0" y="0" width="229" height="68">
<path d="M228.424 0.195312H0.743286V67.0723H228.424V0.195312Z" fill="white"/>
</mask>
<g mask="url(#mask0_31_278)">
<path d="M194.568 3.5428C193.402 5.02908 192.289 7.04599 192.077 8.05444C191.864 9.27518 191.441 9.85907 190.857 9.85907C189.903 9.85907 188.685 10.8144 188.685 11.5575C188.685 11.7698 189.427 11.9822 190.275 11.9822H191.864V18.6168C191.864 25.2514 191.864 25.2514 190.539 25.5697C187.889 26.2067 189.321 26.8437 193.456 26.8437C196.847 26.8437 197.695 26.6844 197.695 26.0476C197.695 25.5697 197.219 25.2514 196.37 25.2514H195.045V11.9822H202.466V18.5637C202.466 24.7206 202.412 25.1983 201.407 25.5168C199.18 26.2067 200.505 26.8437 204.321 26.8437C208.243 26.8437 209.568 26.2067 206.972 25.5697L205.646 25.2514V0.835938H196.742L194.568 3.5428ZM202.466 6.93977V10.3898H195.045V8.10755C195.045 5.02909 195.84 4.12669 198.756 3.8613C200.08 3.75524 201.458 3.64902 201.83 3.59591C202.253 3.5428 202.466 4.4983 202.466 6.93977Z" fill="#424236"/>
<path d="M76.4185 1.95393C76.5774 2.37849 77.3187 2.75011 78.0615 2.85617L79.4922 3.01534V25.0954L77.9026 25.4139C77.0543 25.6262 76.3115 25.9978 76.3115 26.3163C76.3115 27.1654 88.3968 27.0062 91.365 26.1038C94.6511 25.0954 97.2496 23.0785 98.6802 20.3185C99.6339 18.5139 99.8999 17.24 99.8999 13.5777C99.8999 8.00464 98.5747 5.24468 94.9172 3.06845C92.6902 1.74149 92.0008 1.68854 84.3694 1.4761C77.5847 1.26382 76.206 1.37004 76.4185 1.95393ZM92.1598 4.7139C98.6267 9.0131 97.514 22.0169 90.4648 24.6708C88.8218 25.3077 85.7465 25.4139 83.8909 24.9362C82.6728 24.6177 82.6729 24.5646 82.6729 14.1616C82.6729 8.37625 82.8318 3.49317 83.0962 3.28072C83.9445 2.37849 90.0934 3.33384 92.1598 4.7139Z" fill="#424236"/>
<path d="M-0.0124512 3.06963C0.0394522 3.75958 0.728828 7.36883 1.5236 11.1904C2.6379 16.2857 3.22017 18.0374 3.75055 17.9312C4.17389 17.825 10.3228 15.2773 17.372 12.1988C24.4762 9.17346 30.4127 6.67889 30.5181 6.67889C30.6235 6.67889 30.7306 15.4897 30.7306 26.3173V45.9564H34.4401L34.5471 26.4235L34.7061 6.83806L48.222 12.5173C55.6425 15.6489 61.7915 18.1966 61.8434 18.0904C62.0023 18.0374 65.183 2.53886 65.183 2.06119C65.183 2.00807 50.5009 1.90186 32.5845 1.90186H-0.0124512V3.06963ZM25.3764 5.29882C25.271 5.40504 20.7116 7.42194 15.2001 9.75735C5.71156 13.8443 5.28818 13.9505 5.02218 12.8889C4.06846 8.58956 3.69705 6.83805 3.69705 5.98893C3.69705 5.13965 4.54531 5.08654 14.6697 5.08654C20.6597 5.08654 25.4818 5.19276 25.3764 5.29882ZM61.3146 6.25432C61.1557 6.94427 60.7307 8.85496 60.3593 10.5004C59.9895 12.1988 59.511 13.5789 59.2466 13.5789C58.7697 13.5789 39.6353 5.67044 39.2638 5.29882C39.1584 5.19276 44.0876 5.08654 50.2884 5.08654H61.579L61.3146 6.25432Z" fill="#424236"/>
<path d="M110.553 11.4505C109.494 12.6183 108.539 13.5736 108.38 13.5736C108.221 13.5736 108.115 12.7244 108.115 11.7159C108.115 9.6459 107.851 9.59294 104.881 10.4952C102.602 11.1322 101.966 12.5121 104.14 12.0875L105.465 11.8752V18.5098C105.465 25.1445 105.465 25.1445 104.14 25.463C101.384 26.1529 102.92 26.8429 107.32 26.8429C110.871 26.8429 111.825 26.6837 111.825 26.0998C111.825 25.6221 111.189 25.2505 110.13 25.1445L108.38 24.9851L108.062 16.3867L109.971 14.6883C111.03 13.7328 112.621 12.8837 113.469 12.6714C114.741 12.459 115.005 12.1406 115.005 10.8666C115.005 8.53139 112.939 8.79678 110.553 11.4505Z" fill="#424236"/>
<path d="M119.67 10.7664C117.179 11.8811 116.595 12.4119 116.595 13.4203C116.595 14.4288 116.861 14.641 118.186 14.641C119.404 14.641 119.776 14.4288 119.776 13.5795C119.776 12.5179 121.526 11.4564 123.221 11.4564C124.494 11.4564 125.607 13.0487 125.607 14.9064C125.607 16.6579 125.553 16.7111 121.419 18.0911C118.24 19.1525 117.125 19.7364 116.648 20.798C115.695 22.9211 115.959 24.1418 117.602 25.8402C119.511 27.7511 120.995 27.8042 123.274 26.0525C125.394 24.4603 125.978 24.4072 126.401 25.8402C126.719 26.7426 127.037 26.9018 128.362 26.6364C129.264 26.4772 130.164 26.3181 130.43 26.3181C130.695 26.3181 130.907 25.9465 130.907 25.5219C130.907 25.0972 130.43 24.7257 129.9 24.7257C128.469 24.7257 128.257 23.7702 128.257 17.3481C128.257 13.5264 128.044 11.3503 127.568 10.7133C126.455 9.17407 123.115 9.17407 119.67 10.7664ZM125.607 20.4265C125.607 23.0272 123.646 24.8849 121.154 24.6195C119.724 24.4603 119.511 24.2481 119.352 22.7618C119.193 21.1165 119.352 20.9572 122.003 19.7364C123.539 19.0465 124.971 18.4095 125.235 18.4095C125.448 18.3565 125.607 19.3119 125.607 20.4265Z" fill="#424236"/>
<path d="M136.844 10.4456C132.815 12.4625 131.809 16.4963 134.67 19.3094L136.26 20.9017L134.67 22.0693C132.709 23.3963 132.604 24.2987 134.193 25.891L135.306 27.0055L133.663 28.4386C131.12 30.5617 131.543 33.5872 134.458 34.7015C137.851 35.9757 139.758 35.8695 143.098 34.224C146.861 32.3132 148.399 30.5617 148.399 28.1202C148.399 25.4663 146.915 24.7233 141.773 24.7233C136.526 24.7233 135.678 24.2987 137.056 22.3878C137.639 21.6448 138.54 21.0079 139.071 21.0079C140.766 21.0079 144.636 18.8848 145.325 17.6641C145.696 17.0271 146.066 15.541 146.225 14.3732C146.491 12.6748 146.809 12.1971 147.763 12.0909C148.611 11.9317 148.929 11.5601 148.929 10.6048C148.929 9.11863 147.657 8.90635 146.225 10.1802C145.325 10.9764 145.113 10.9764 143.416 10.1802C141.032 9.06552 139.599 9.11863 136.844 10.4456ZM140.714 11.2417C143.046 12.144 143.893 17.2394 141.932 18.5663C140.237 19.7339 139.017 19.6279 137.533 18.0886C134.511 15.1162 136.949 9.80857 140.714 11.2417ZM145.059 28.2263C146.12 30.9864 142.144 34.1709 138.54 33.4808C136.738 33.1625 134.618 31.6231 134.618 30.6148C134.618 30.4025 135.095 29.5532 135.731 28.7571C136.738 27.4832 137.108 27.3772 140.766 27.3772C143.946 27.3772 144.795 27.5363 145.059 28.2263Z" fill="#424236"/>
<path d="M154.919 10.709C150.306 12.9913 148.717 18.0866 151.102 22.9697C152.321 25.5174 155.183 27.3752 157.78 27.3752C159.954 27.3221 163.347 25.6236 164.883 23.7659C168.381 19.679 166.685 12.089 161.863 10.0721C159.37 9.01057 157.993 9.11663 154.919 10.709ZM160.643 12.142C164.247 14.5305 164.724 21.1651 161.597 24.3498C160.272 25.6236 159.741 25.8359 158.364 25.5705C156.296 25.146 154.812 23.8721 153.912 21.6959C152.426 18.246 153.381 13.522 155.873 11.7705C157.516 10.6028 158.523 10.709 160.643 12.142Z" fill="#424236"/>
<path d="M177.023 10.8647L174.639 12.5101L174.162 11.2894C173.843 10.6524 173.578 10.0155 173.473 9.90931C173.207 9.53786 168.544 11.024 168.544 11.5017C168.544 11.767 169.126 11.9793 169.869 11.9793H171.194V18.6139C171.194 25.2485 171.194 25.2485 169.869 25.567C167.483 26.1509 169.072 26.8409 172.835 26.8409C176.388 26.8409 177.607 26.204 175.434 25.5139C174.48 25.1956 174.373 24.7179 174.373 19.7817V14.3678L176.705 13.0409C178.72 11.9793 179.25 11.8733 180.417 12.4041C181.794 12.9878 181.794 13.094 181.794 19.0916C181.794 23.9747 181.635 25.1956 180.999 25.461C179.038 26.204 180.417 26.8409 183.915 26.8409C187.571 26.8409 188.896 26.0978 186.353 25.461C185.081 25.1425 185.081 25.0363 184.869 18.3485C184.71 10.7055 184.392 10.0155 181.211 9.53786C179.781 9.32542 178.879 9.64392 177.023 10.8647Z" fill="#424236"/>
<path d="M208.297 11.9279C208.297 12.1933 208.827 12.5116 209.411 12.6178C210.365 12.724 211.054 14.1039 213.333 19.9955C214.817 23.9763 216.248 27.4794 216.46 27.7979C216.619 28.1162 216.142 29.4432 215.348 30.7701C214.181 32.681 213.546 33.1585 212.431 33.2117C211.16 33.2117 210.947 33.4239 210.947 34.8039C210.947 36.2902 211.054 36.3963 213.015 36.3963H215.03L217.468 30.9295C218.739 27.957 220.966 22.5963 222.343 18.987C224.304 13.8385 225.047 12.5116 225.842 12.5116C226.372 12.5116 226.849 12.2462 226.849 11.9808C226.849 11.6625 225.418 11.4502 223.668 11.4502C221.92 11.4502 220.489 11.6625 220.489 11.9808C220.489 12.2462 220.859 12.5116 221.338 12.5116C221.866 12.5116 222.025 12.8301 221.866 13.4671C221.655 13.9979 220.754 16.7578 219.8 19.677L218.05 24.8786L216.089 19.3055C213.81 12.8832 213.756 12.5116 215.189 12.5116C215.771 12.5116 216.248 12.2462 216.248 11.9808C216.248 11.6625 214.553 11.4502 212.272 11.4502C210.1 11.4502 208.297 11.6625 208.297 11.9279Z" fill="#424236"/>
<path d="M15.883 61.8797H49.2763V28.4407H40.7966V30.2984C40.7966 32.156 40.7966 32.156 43.1809 32.156H45.5668V58.1636H19.0637V32.156H24.3643V28.4407H15.883V61.8797Z" fill="#424236"/>
<path d="M85.9086 34.7563C80.2366 36.7732 77.4273 40.1697 77.0023 45.6367C76.579 50.6262 77.5327 53.5984 80.5009 56.5707C84.3174 60.3924 88.1875 61.1363 93.965 59.1726C97.8869 57.8976 98.3638 57.4737 98.7887 54.8198C99.1066 53.1209 99.0012 52.8562 98.1529 52.8562C97.569 52.8562 96.8278 53.5465 96.2974 54.7126C95.1312 57.1554 93.1702 58.3232 90.4128 58.2696C84.7424 58.216 80.5545 53.2265 80.5545 46.5934C80.5545 42.6645 81.3492 40.3289 83.3102 38.1541C86.9677 34.2788 94.3883 34.9688 96.2438 39.3739C97.3565 42.0278 98.5763 41.7631 98.5763 38.7908C98.5763 36.5611 98.4708 36.3487 96.4028 35.2871C93.2756 33.6948 89.4056 33.4827 85.9086 34.7563Z" fill="#424236"/>
<path d="M177.45 34.3866C175.171 34.9701 174.693 36.4035 176.761 36.4035H178.086V47.2314C178.086 57.9526 178.086 58.1117 176.92 58.2709C176.284 58.3765 175.7 58.7484 175.541 59.0668C175.382 59.5979 176.389 59.757 179.357 59.757C183.438 59.757 185.242 58.9076 182.379 58.3765L180.736 58.0581V45.9044C180.736 36.5095 180.577 33.7494 180.1 33.8025C179.729 33.8558 178.509 34.1212 177.45 34.3866Z" fill="#424236"/>
<path d="M139.389 39.3731C139.389 41.1775 139.442 41.2295 141.137 41.072C142.621 40.9112 142.834 40.7 142.993 39.1603C143.152 37.515 143.098 37.4614 141.296 37.4614C139.442 37.4614 139.389 37.515 139.389 39.3731Z" fill="#424236"/>
<path d="M150.519 39.523C150.253 40.1061 149.988 41.0627 149.988 41.6458C149.988 42.4417 149.563 42.708 148.292 42.8672C145.854 43.08 145.482 44.8844 147.815 44.8844H149.458V51.7303C149.458 58.2595 149.511 58.6834 150.624 59.4273C152.267 60.5951 153.646 60.4879 156.084 58.9498C158.362 57.5693 158.309 57.4637 155.023 57.4101L152.903 57.3565L152.585 44.8844H155.289C157.303 44.8844 157.939 44.6717 157.939 44.087C157.939 43.5039 157.303 43.2911 155.289 43.2911H152.639V40.9036C152.639 38.3016 151.578 37.613 150.519 39.523Z" fill="#424236"/>
<path d="M105.097 43.7279C102.923 44.7901 102.287 45.3732 102.287 46.3282C102.287 48.1327 104.779 48.0807 105.256 46.2226C105.468 45.2676 106.05 44.8421 107.375 44.5774C109.867 44.0998 110.874 45.0549 110.662 47.7088L110.503 49.8316L106.793 51.1049C104.779 51.7952 102.764 52.7518 102.446 53.2293C101.386 54.6083 101.598 57.475 102.818 58.6963C104.725 60.6064 106.368 60.6064 108.913 58.7483L111.246 57.051L111.615 58.4836C111.933 59.7049 112.146 59.8105 113.578 59.5442C114.425 59.385 115.485 59.2258 115.857 59.2258C117.075 59.2258 116.705 58.1652 115.326 57.6341C114.107 57.2102 114.055 56.9439 113.896 50.7346C113.683 44.6829 113.578 44.2054 112.412 43.2504C110.715 41.8698 108.383 42.029 105.097 43.7279ZM110.769 53.5477C110.769 55.5113 110.556 55.9352 109.231 56.7311C107.004 58.0061 105.573 57.8989 104.832 56.3072C104.302 55.193 104.354 54.7674 105.097 54.0252C105.786 53.3885 109.39 51.5841 110.662 51.3177C110.715 51.2641 110.769 52.2727 110.769 53.5477Z" fill="#424236"/>
<path d="M125.075 43.7782C123.114 45.4251 122.424 45.4251 122.424 43.7782C122.424 42.612 121.947 42.5584 119.192 43.4079C116.859 44.0965 116.488 44.894 118.449 44.894H119.774V66.6547H118.449C117.708 66.6547 117.124 66.8675 117.124 67.1858C117.124 67.5042 119.086 67.7169 121.895 67.7169C124.705 67.7169 126.666 67.5042 126.666 67.1858C126.666 66.8675 125.817 66.6547 124.81 66.6547H122.955V60.0199H125.764C131.118 59.968 134.192 56.9957 134.51 51.6343C134.776 47.4943 133.768 44.7868 131.329 43.3007C128.945 41.8681 127.248 41.9737 125.075 43.7782ZM130.375 46.5912C131.7 48.7676 131.807 53.7571 130.641 56.0927C129.263 58.7466 126.189 59.2777 123.908 57.2069C123.114 56.5702 122.955 55.508 122.955 51.8471C122.955 47.3351 123.008 47.2815 124.705 46.0618C127.195 44.3093 129.104 44.522 130.375 46.5912Z" fill="#424236"/>
<path d="M162.609 43.6695C160.117 44.7837 159.534 45.3148 159.534 46.3235C159.534 47.3321 159.8 47.5432 161.071 47.5432C162.289 47.5432 162.661 47.2785 162.82 46.3235C163.086 44.571 166.743 43.7231 167.802 45.1557C168.227 45.6868 168.545 46.9065 168.545 47.8632C168.545 49.5604 168.438 49.614 164.357 50.9946C160.912 52.1088 160.064 52.6399 159.534 53.8596C158.739 55.7713 159.321 57.8941 160.964 59.2211C162.768 60.6536 164.093 60.548 166.213 58.9563C168.333 57.363 168.915 57.3094 169.34 58.7436C169.658 59.645 169.976 59.8041 171.301 59.5394C172.203 59.3802 173.103 59.2211 173.367 59.2211C173.633 59.2211 173.846 58.8491 173.846 58.4252C173.846 57.9997 173.367 57.6294 172.839 57.6294C171.406 57.6294 171.196 56.6727 171.196 50.2507C171.196 46.429 170.983 44.2526 170.506 43.616C169.394 42.0762 166.054 42.0762 162.609 43.6695ZM168.545 53.3285C168.545 55.081 168.279 55.6121 166.954 56.5672C166 57.2574 164.781 57.6294 163.934 57.5222C162.714 57.4166 162.396 57.0983 162.289 55.6121C162.13 53.9668 162.289 53.8077 164.94 52.5863C166.477 51.896 167.908 51.3129 168.174 51.3129C168.386 51.2593 168.545 52.2144 168.545 53.3285Z" fill="#424236"/>
<path d="M138.488 43.4015C136.368 44.0918 136.263 44.782 138.224 44.9932L139.655 45.1524L139.814 51.628C139.973 57.9444 139.921 58.1036 138.806 58.2627C138.117 58.3699 137.535 58.7402 137.376 59.0586C137.217 59.5897 138.224 59.7488 141.246 59.7488C144.266 59.7488 145.273 59.5897 145.114 59.0586C144.955 58.7402 144.373 58.3699 143.735 58.2627C142.623 58.1036 142.571 57.8924 142.571 50.4082C142.571 42.8184 142.571 42.7648 141.405 42.8184C140.715 42.8704 139.39 43.1368 138.488 43.4015Z" fill="#424236"/>
</g>
</svg>
