<svg width="251" height="61" viewBox="0 0 251 61" fill="none" xmlns="http://www.w3.org/2000/svg">
<mask id="mask0_31_300" style="mask-type:luminance" maskUnits="userSpaceOnUse" x="0" y="0" width="251" height="61">
<path d="M250.976 0.546875H0.593018V60.7202H250.976V0.546875Z" fill="white"/>
</mask>
<g mask="url(#mask0_31_300)">
<path d="M-0.54248 27.5423L12.8713 20.9536L-0.54248 14.3647V27.5423Z" fill="#424236"/>
<path d="M-0.54248 40.7194H39.6988V34.1317L26.2851 27.5422L-0.54248 40.7194Z" fill="#424236"/>
<path d="M-0.54248 1.1875L26.2851 14.3651L39.6988 7.77631V1.1875H-0.54248Z" fill="#424236"/>
<path d="M26.2853 14.362L12.8715 20.951L26.2853 27.5398L39.699 34.1287V7.77319L26.2853 14.362Z" fill="#424236"/>
<path d="M232.079 25.0684C230.94 25.0771 229.803 25.1478 228.673 25.28C226.588 25.6009 225.441 26.6456 225.441 28.4549C225.441 30.0254 226.491 30.8789 228.055 30.8789C230.196 30.8789 232.079 29.4519 232.079 26.6729V25.0684ZM226.603 34.4763C222.759 34.4763 220.347 32.1215 220.347 28.53C220.347 25.2527 222.488 23.2522 226.038 22.4328C228.033 22.057 230.063 21.89 232.093 21.9344C232.093 19.1213 230.932 18.1654 227.957 18.1654C226.048 18.2013 224.168 18.6391 222.446 19.449V15.5504C224.4 14.7591 226.497 14.3597 228.611 14.3761C234.865 14.3761 237.125 17.1549 237.125 22.3919V30.1347H239.592V34.0475H232.642L232.26 32.0942H232.182C231.495 32.8727 230.638 33.491 229.677 33.9046C228.716 34.3171 227.672 34.5152 226.622 34.4844L226.603 34.4763ZM163.829 25.0684C162.694 25.0771 161.558 25.1478 160.431 25.28C158.345 25.6009 157.198 26.6456 157.198 28.4549C157.198 30.0254 158.248 30.8789 159.805 30.8789C161.946 30.8789 163.829 29.4519 163.829 26.6729V25.0684ZM158.36 34.4763C154.516 34.4763 152.104 32.1215 152.104 28.53C152.104 25.2527 154.245 23.2522 157.797 22.4328C159.79 22.057 161.819 21.89 163.85 21.9344C163.85 19.1213 162.69 18.1654 159.722 18.1654C157.813 18.2015 155.933 18.6392 154.211 19.449V15.5504C156.165 14.7595 158.261 14.3603 160.376 14.3761C166.63 14.3761 168.896 17.1549 168.896 22.3919V30.1347H171.357V34.0475H164.406L164.011 32.0942H163.941C163.252 32.8716 162.395 33.4892 161.433 33.9029C160.472 34.3155 159.429 34.5136 158.381 34.4844L158.36 34.4763ZM86.6423 25.0684C85.502 25.0771 84.3618 25.1478 83.2296 25.28C81.1438 25.6009 80.0052 26.6456 80.0052 28.4549C80.0052 30.0254 81.061 30.8789 82.6181 30.8789C84.7591 30.8789 86.6423 29.4519 86.6423 26.6729V25.0684ZM81.1648 34.4844C77.3224 34.4844 74.9104 32.1284 74.9104 28.537C74.9104 25.2595 77.0499 23.259 80.602 22.4396C82.5971 22.0636 84.6261 21.8967 86.6552 21.9412C86.6552 19.1283 85.502 18.1723 82.5208 18.1723C80.6117 18.2075 78.7318 18.6452 77.0093 19.4559V15.5504C78.9638 14.7592 81.0594 14.36 83.1745 14.3761C89.4288 14.3761 91.6947 17.1549 91.6947 22.3919V30.1347H94.1617V34.0475H87.2116L86.8093 32.0942H86.7396C86.0502 32.8721 85.1938 33.4899 84.232 33.9029C83.2718 34.3171 82.2289 34.5152 81.1795 34.4844H81.1648ZM188.558 24.3583C188.558 20.7669 186.751 18.3771 183.956 18.3771C181.163 18.3771 179.39 20.7942 179.39 24.3242C179.39 27.8542 181.163 30.3395 183.852 30.3395C186.632 30.3395 188.564 27.9156 188.564 24.3515L188.558 24.3583ZM193.75 24.3515C193.75 30.3395 190.274 34.4763 185.228 34.4763C182.219 34.4763 180.44 33.2958 179.536 32.0873H179.439V40.1917L174.365 42.2398V18.623H171.795V14.7107H179.043L179.369 17.2369H179.439C180.093 16.24 181.614 14.3488 185.2 14.3488C190.455 14.3488 193.722 18.302 193.722 24.3583L193.75 24.3515ZM119.669 14.3488C118.453 14.2996 117.244 14.5359 116.14 15.0383C115.037 15.5406 114.07 16.2942 113.324 17.2369H113.246L112.92 14.7107H105.352V18.623H108.181V34.0475H113.295V25.1093C113.295 20.3298 115.867 18.5614 118.078 18.5614C120.162 18.5614 121.121 19.8793 121.121 22.8356V34.0475H126.194V21.6954C126.194 16.8546 123.949 14.3556 119.641 14.3556L119.669 14.3488ZM142.875 29.8888C137.655 29.8888 134.577 26.434 134.577 20.876C134.577 15.4617 137.655 11.7951 142.437 11.7951C143.595 11.7919 144.75 11.9224 145.877 12.1843V17.6465L150.415 15.7963V9.36434C148.055 8.04665 145.374 7.3835 142.659 7.44587C134.646 7.44587 129.177 12.2867 129.177 20.9444C129.177 29.1377 134.041 34.4844 142.659 34.4844C145.397 34.4828 148.091 33.8185 150.506 32.5516L149.387 28.3525C147.374 29.3716 145.139 29.8987 142.875 29.8888ZM247.376 30.1415V6.24414L242.268 8.29255V34.0475H249.843V30.1347H247.376V30.1415ZM67.9327 26.2154C67.9327 23.7232 66.0836 22.3646 62.8932 22.3646H58.0289V30.1004H62.963C66.5151 30.1004 67.9668 28.53 67.9668 26.2154H67.9327ZM58.0013 18.4864H62.1358C65.0764 18.4864 66.4875 17.1208 66.4875 15.1748C66.4875 12.9286 65.0975 11.761 62.4277 11.761H58.0013V18.4864ZM73.3323 26.4749C73.3323 31.4933 69.3082 34.0199 63.2549 34.0199H52.7397V11.7883H49.5492V7.86912H62.3855C65.8614 7.86912 67.6132 8.33348 68.9886 9.18699C69.8726 9.73125 70.5961 10.4949 71.0843 11.4012C71.5725 12.3075 71.8077 13.3241 71.7687 14.3488C71.7687 17.0798 70.0316 19.1965 67.2029 19.9407V20.0157C71.0113 20.6576 73.3323 23.1156 73.3323 26.5022V26.4749ZM195.195 18.623H197.975V34.0475H203.07V14.7107H195.195V18.623ZM197.975 11.3582H203.07V6.62647H197.954V11.365L197.975 11.3582ZM94.6483 18.623H97.4285V34.0475H102.544V14.7107H94.6483V18.623ZM97.4285 11.3582H102.544V6.62647H97.4285V11.365V11.3582ZM213.752 14.7038H218.936V18.623H213.752V27.1577C213.752 29.2948 214.224 30.5716 216.323 30.5716C217.105 30.5297 217.881 30.4223 218.644 30.2506V33.9923C217.34 34.3171 216.002 34.499 214.655 34.5315C210.665 34.5315 208.67 32.6404 208.67 28.4754V18.623H205.89V14.7107H208.67V11.3923L213.752 9.34389V14.7243V14.7038Z" fill="#424236"/>
<path d="M60.7554 48.4539L57.5505 58.4296L54.3811 48.4539H51.6788L56.042 61.1192H58.8918L63.2565 48.4539H60.7554Z" fill="#424236"/>
<path d="M65.3473 48.4539V61.1192H73.8189V59.0841H67.9052V55.4931H73.2285V53.5002H67.9052V50.4272H73.6324V48.4539H65.3473Z" fill="#424236"/>
<path d="M84.8306 48.4539V57.1725L79.3321 48.4539H76.5878V61.1192H79.0061V51.9426L84.7884 61.1192H87.249V48.4539H84.8306Z" fill="#424236"/>
<path d="M89.3834 48.4539V50.4272H93.0799V61.1192H95.6248V50.4272H99.2937V48.4539H89.3834Z" fill="#424236"/>
<path d="M109.051 48.4539H111.609V56.094C111.609 57.7945 111.345 58.9477 110.476 59.9043C109.608 60.8593 108.391 61.3239 106.473 61.3239C104.555 61.3239 103.324 60.8675 102.47 59.9043C101.615 58.9412 101.316 57.8075 101.316 56.1151V48.4539H103.874V56.2369C103.874 57.3365 103.999 57.8351 104.403 58.285C104.961 58.7999 105.697 59.0857 106.463 59.0857C107.228 59.0857 107.965 58.7999 108.523 58.285C108.933 57.8075 109.051 57.3089 109.051 56.2369V48.4539Z" fill="#424236"/>
<path d="M120.741 50.7912C120.253 50.481 119.676 50.3332 119.095 50.3689H117.288V54.3222H119.074C119.661 54.3579 120.245 54.2101 120.741 53.8983C120.981 53.7148 121.176 53.4776 121.309 53.2096C121.442 52.94 121.512 52.6444 121.512 52.3456C121.512 52.0451 121.442 51.7511 121.309 51.4815C121.176 51.2119 120.981 50.9764 120.741 50.7912ZM121.894 61.1226L118.886 56.1998H117.28V61.1226H114.73V48.4573H119.379C120.527 48.3891 121.666 48.6879 122.624 49.31C123.161 49.7339 123.572 50.291 123.81 50.9244C124.05 51.5578 124.112 52.2416 123.987 52.9075C123.862 53.5718 123.557 54.1906 123.103 54.6974C122.649 55.2058 122.063 55.5826 121.41 55.7905L124.821 61.1161H121.894V61.1226Z" fill="#424236"/>
<path d="M127.078 48.4539V61.1192H135.543V59.0841H129.636V55.4931H134.959V53.5002H129.636V50.4272H135.363V48.4539H127.078Z" fill="#424236"/>
<path d="M141.906 61.2974C140.129 61.2974 138.419 60.6185 137.139 59.4068L138.418 57.6316C139.357 58.533 140.586 59.0836 141.893 59.1876C143.415 59.1876 144.187 58.5931 144.187 57.6316C144.187 56.6684 143.235 56.3193 142.721 56.1146C142.206 55.91 140.573 55.3366 140.224 55.2002C139.504 54.9907 138.872 54.5554 138.422 53.9626C137.973 53.3681 137.733 52.6486 137.736 51.9096C137.736 50.2708 138.912 48.2568 142.365 48.2568C143.971 48.2617 145.517 48.8578 146.696 49.9297L145.598 51.6497C144.691 50.8279 143.52 50.3439 142.289 50.2838C140.969 50.2838 140.205 50.7613 140.205 51.705C140.205 52.647 141.142 52.9816 141.595 53.1797C142.046 53.3779 143.679 53.9366 144.047 54.0811C145.973 54.7633 146.688 55.9928 146.688 57.4058C146.688 59.2217 145.368 61.3591 141.824 61.3591" fill="#424236"/>
</g>
</svg>
