<svg width="48" height="48" viewBox="0 0 48 48" fill="none" xmlns="http://www.w3.org/2000/svg">
<g filter="url(#filter0_i_29_52)">
<rect width="48" height="48" rx="10" fill="#11110E"/>
</g>
<rect x="0.5" y="0.5" width="47" height="47" rx="9.5" stroke="#FFFEFE" stroke-opacity="0.04"/>
<path d="M25.5319 32.5657C16.2607 32.5657 10.9726 26.2098 10.7523 15.6335H15.3963C15.5489 23.3962 18.9725 26.6844 21.6844 27.3623V15.6335H26.0574V22.3284C28.7354 22.0403 31.5486 18.9895 32.4978 15.6335H36.8708C36.1419 19.7692 33.0911 22.82 30.9216 24.0742C33.0911 25.0911 36.5658 27.7522 37.8879 32.5657H33.0742C32.0403 29.3454 29.4642 26.8539 26.0574 26.5149V32.5657H25.5319Z" fill="#EBFFB4"/>
<defs>
<filter id="filter0_i_29_52" x="0" y="0" width="48" height="52" filterUnits="userSpaceOnUse" color-interpolation-filters="sRGB">
<feFlood flood-opacity="0" result="BackgroundImageFix"/>
<feBlend mode="normal" in="SourceGraphic" in2="BackgroundImageFix" result="shape"/>
<feColorMatrix in="SourceAlpha" type="matrix" values="0 0 0 0 0 0 0 0 0 0 0 0 0 0 0 0 0 0 127 0" result="hardAlpha"/>
<feOffset dy="4"/>
<feGaussianBlur stdDeviation="7.75"/>
<feComposite in2="hardAlpha" operator="arithmetic" k2="-1" k3="1"/>
<feColorMatrix type="matrix" values="0 0 0 0 1 0 0 0 0 1 0 0 0 0 1 0 0 0 0.05 0"/>
<feBlend mode="normal" in2="shape" result="effect1_innerShadow_29_52"/>
</filter>
</defs>
</svg>
